<svg xmlns="http://www.w3.org/2000/svg" viewBox="0 0 500 500"><g id="freepik--background-complete--inject-17"><polygon points="47.48 181.96 98.11 181.71 148.74 181.63 250 181.46 351.26 181.63 401.89 181.71 452.52 181.96 401.89 182.2 351.26 182.29 250 182.46 148.74 182.29 98.11 182.2 47.48 181.96" style="fill:#ebebeb"></polygon><polygon points="47.48 216.54 98.11 216.3 148.74 216.21 250 216.04 351.26 216.21 401.89 216.3 452.52 216.54 401.89 216.79 351.26 216.87 250 217.04 148.74 216.87 98.11 216.78 47.48 216.54" style="fill:#ebebeb"></polygon><polygon points="47.48 251.13 98.11 250.88 148.74 250.79 250 250.63 351.26 250.79 401.89 250.88 452.52 251.13 401.89 251.37 351.26 251.46 250 251.63 148.74 251.46 98.11 251.37 47.48 251.13" style="fill:#ebebeb"></polygon><polygon points="47.48 285.71 98.11 285.47 148.74 285.38 250 285.21 351.26 285.38 401.89 285.46 452.52 285.71 401.89 285.95 351.26 286.04 250 286.21 148.74 286.04 98.11 285.95 47.48 285.71" style="fill:#ebebeb"></polygon><polygon points="47.48 78.2 98.11 77.96 148.74 77.87 250 77.7 351.26 77.87 401.89 77.96 452.52 78.2 401.89 78.45 351.26 78.54 250 78.7 148.74 78.54 98.11 78.45 47.48 78.2" style="fill:#ebebeb"></polygon><polygon points="47.48 112.79 98.11 112.55 148.74 112.46 250 112.29 351.26 112.46 401.89 112.54 452.52 112.79 401.89 113.03 351.26 113.12 250 113.29 148.74 113.12 98.11 113.03 47.48 112.79" style="fill:#ebebeb"></polygon><polygon points="47.48 147.37 98.11 147.13 148.74 147.04 250 146.87 351.26 147.04 401.89 147.13 452.52 147.37 401.89 147.62 351.26 147.71 250 147.87 148.74 147.7 98.11 147.62 47.48 147.37" style="fill:#ebebeb"></polygon><polygon points="47.48 320.29 98.11 320.05 148.74 319.96 250 319.8 351.26 319.96 401.89 320.05 452.52 320.29 401.89 320.54 351.26 320.63 250 320.79 148.74 320.63 98.11 320.54 47.48 320.29" style="fill:#ebebeb"></polygon><polygon points="47.48 354.88 98.11 354.63 148.74 354.55 250 354.38 351.26 354.55 401.89 354.63 452.52 354.88 401.89 355.12 351.26 355.21 250 355.38 148.74 355.21 98.11 355.12 47.48 354.88" style="fill:#ebebeb"></polygon><polygon points="284.58 50.02 284.83 96.15 284.92 142.28 285.08 234.54 284.92 326.8 284.83 372.93 284.58 398.06 284.34 372.93 284.25 326.8 284.08 234.54 284.25 142.28 284.34 96.15 284.58 50.02" style="fill:#ebebeb"></polygon><polygon points="250 50.02 250.24 96.15 250.33 142.28 250.5 234.54 250.33 326.8 250.25 372.93 250 398.06 249.75 372.93 249.67 326.8 249.5 234.54 249.67 142.28 249.76 96.15 250 50.02" style="fill:#ebebeb"></polygon><polygon points="215.42 50.02 215.66 96.15 215.75 142.28 215.91 234.54 215.75 326.8 215.66 372.93 215.42 398.06 215.17 372.93 215.08 326.8 214.92 234.54 215.08 142.28 215.17 96.15 215.42 50.02" style="fill:#ebebeb"></polygon><polygon points="180.83 50.02 181.07 96.15 181.16 142.28 181.33 234.54 181.16 326.8 181.08 372.93 180.83 398.06 180.59 372.93 180.5 326.8 180.33 234.54 180.5 142.28 180.59 96.15 180.83 50.02" style="fill:#ebebeb"></polygon><polygon points="388.34 50.02 388.58 96.15 388.67 142.28 388.84 234.54 388.67 326.8 388.58 372.93 388.34 398.06 388.09 372.93 388 326.8 387.84 234.54 388.01 142.28 388.09 96.15 388.34 50.02" style="fill:#ebebeb"></polygon><polygon points="353.75 50.02 354 96.15 354.08 142.28 354.25 234.54 354.08 326.8 354 372.93 353.75 398.06 353.51 372.93 353.42 326.8 353.25 234.54 353.42 142.28 353.51 96.15 353.75 50.02" style="fill:#ebebeb"></polygon><polygon points="319.17 50.02 319.41 96.15 319.5 142.28 319.67 234.54 319.5 326.8 319.41 372.93 319.17 398.06 318.92 372.93 318.84 326.8 318.67 234.54 318.84 142.28 318.93 96.15 319.17 50.02" style="fill:#ebebeb"></polygon><polygon points="422.92 50.02 423.16 96.15 423.25 142.28 423.42 234.54 423.25 326.8 423.17 372.93 422.92 398.06 422.68 372.93 422.59 326.8 422.42 234.54 422.59 142.28 422.68 96.15 422.92 50.02" style="fill:#ebebeb"></polygon><polygon points="388.34 50.02 388.58 96.15 388.67 142.28 388.84 234.54 388.67 326.8 388.58 372.93 388.34 398.06 388.09 372.93 388 326.8 387.84 234.54 388.01 142.28 388.09 96.15 388.34 50.02" style="fill:#ebebeb"></polygon><polygon points="146.25 50.02 146.49 96.15 146.58 142.28 146.75 234.54 146.58 326.8 146.49 372.93 146.25 398.06 146 372.93 145.91 326.8 145.75 234.54 145.92 142.28 146 96.15 146.25 50.02" style="fill:#ebebeb"></polygon><polygon points="111.66 50.02 111.91 96.15 111.99 142.28 112.16 234.54 112 326.8 111.91 372.93 111.66 398.06 111.42 372.93 111.33 326.8 111.16 234.54 111.33 142.28 111.42 96.15 111.66 50.02" style="fill:#ebebeb"></polygon><polygon points="77.08 50.02 77.32 96.15 77.41 142.28 77.58 234.54 77.41 326.8 77.32 372.93 77.08 398.06 76.83 372.93 76.75 326.8 76.58 234.54 76.75 142.28 76.83 96.15 77.08 50.02" style="fill:#ebebeb"></polygon><rect x="241.65" y="157.81" width="202.48" height="7.85" style="fill:#ebebeb"></rect><polygon points="271.41 165.52 271.41 208.4 260.44 208.4 257.39 175.71 256.44 165.52 271.41 165.52" style="fill:#ebebeb"></polygon><polygon points="256.44 165.52 271.41 165.52 271.41 175.71 257.39 175.71 256.44 165.52" style="fill:#dbdbdb"></polygon><polygon points="429.35 165.52 428.4 175.71 425.35 208.4 414.38 208.4 414.38 165.52 429.35 165.52" style="fill:#ebebeb"></polygon><polygon points="429.35 165.52 428.4 175.71 414.38 175.71 414.38 165.52 429.35 165.52" style="fill:#dbdbdb"></polygon><rect x="353.69" y="106.08" width="1" height="50.73" transform="translate(-18.77 71.22) rotate(-11.19)" style="fill:#ebebeb"></rect><rect x="330.77" y="131.45" width="52.89" height="1" transform="translate(148.72 450.6) rotate(-77.08)" style="fill:#ebebeb"></rect><rect x="334.71" y="131.97" width="52.83" height="1" transform="translate(128.57 438.87) rotate(-72.95)" style="fill:#ebebeb"></rect><rect x="357.35" y="107.11" width="1" height="50.39" transform="translate(-23.23 113.94) rotate(-17.53)" style="fill:#ebebeb"></rect><rect x="358.47" y="105.82" width="1" height="51.04" transform="translate(-2.9 8.23) rotate(-1.31)" style="fill:#ebebeb"></rect><polygon points="367.1 158.14 349.27 158.14 352.8 135.8 363.56 135.8 367.1 158.14" style="fill:#c7c7c7"></polygon><rect x="267.55" y="110.75" width="32.07" height="47.39" style="fill:#dbdbdb"></rect><rect x="277.05" y="101.17" width="13.08" height="9.58" style="fill:#ebebeb"></rect><rect x="272.01" y="122.77" width="23.03" height="22.03" style="fill:#ebebeb"></rect><rect x="301.97" y="104.57" width="27.49" height="53.56" style="fill:#dbdbdb"></rect><rect x="310.11" y="96.36" width="11.21" height="8.21" style="fill:#c7c7c7"></rect><rect x="301.97" y="125" width="27.49" height="18.89" style="fill:#c7c7c7"></rect><rect x="16.96" y="88.49" width="219.53" height="158.47" transform="translate(294.45 41.01) rotate(90)" style="fill:#ebebeb"></rect><rect x="37.67" y="109.21" width="178.09" height="117.04" transform="translate(294.45 41.01) rotate(90)" style="fill:#fff"></rect><g style="opacity:0.2"><polygon points="185.25 207.35 68.2 90.31 68.2 78.69 93.36 78.69 185.25 170.57 185.25 207.35" style="fill:#ebebeb"></polygon><polygon points="131.01 256.78 94.21 256.78 68.2 230.77 68.2 193.98 131.01 256.78" style="fill:#ebebeb"></polygon><polygon points="185.25 101.64 162.29 78.69 174.38 78.69 185.25 89.56 185.25 101.64" style="fill:#ebebeb"></polygon><polygon points="172.61 256.78 168.56 256.78 68.2 156.43 68.2 152.38 172.61 256.78" style="fill:#ebebeb"></polygon><polygon points="185.25 158.36 105.57 78.69 109.62 78.69 185.25 154.31 185.25 158.36" style="fill:#ebebeb"></polygon></g><rect x="317.4" y="267.99" width="115.44" height="10.73" style="fill:#c7c7c7"></rect><circle cx="314.07" cy="273.35" r="10.09" transform="translate(-33.26 502.97) rotate(-74.5)" style="fill:#c7c7c7"></circle><circle cx="436.18" cy="273.35" r="10.09" transform="translate(-65.54 388.49) rotate(-45)" style="fill:#c7c7c7"></circle><rect x="328.17" y="265.35" width="93.91" height="125.37" style="fill:#dbdbdb"></rect><rect x="328.17" y="375.56" width="93.91" height="7.67" style="fill:#c7c7c7"></rect><rect x="328.17" y="367.75" width="93.91" height="2.46" style="fill:#c7c7c7"></rect></g><g id="freepik--Box--inject-17"><rect x="283.21" y="411.09" width="114.7" height="30.71" style="fill:#2C1550"></rect><rect x="373.46" y="411.09" width="24.45" height="30.71" style="fill:#050400;opacity:0.1"></rect><rect x="385.02" y="411.09" width="1.32" height="30.71" style="fill:#050400;opacity:0.1"></rect><path d="M290.17,422.1H289.1V424a.48.48,0,0,1-1,0v-5.11a.48.48,0,0,1,.48-.48h1.55a1.86,1.86,0,1,1,0,3.71Zm-1.07-1h1.07a.9.9,0,1,0,0-1.79H289.1Z" style="fill:#fff"></path><path d="M297.2,423.74a.48.48,0,0,1-.3.61l-.19,0h0a.69.69,0,0,1-.34-.09.91.91,0,0,1-.27-.31,2.19,2.19,0,0,1-.19-1,.67.67,0,0,0-.1-.37.89.89,0,0,0-.26-.25,1.86,1.86,0,0,0-.48-.21h-1V424a.48.48,0,1,1-1,0v-5.11a.47.47,0,0,1,.48-.48h1.55a1.86,1.86,0,0,1,1.18,3.29,1.32,1.32,0,0,1,.3.32,1.66,1.66,0,0,1,.29.93,2,2,0,0,0,0,.51A.47.47,0,0,1,297.2,423.74ZM296,420.26a.9.9,0,0,0-.89-.91H294v1.79h1.07A.89.89,0,0,0,296,420.26Z" style="fill:#fff"></path><path d="M298.61,424v-5.11a.47.47,0,0,1,.48-.48h2.83a.48.48,0,0,1,0,1h-2.35v1.59h2a.49.49,0,0,1,.48.48.48.48,0,0,1-.48.48h-2v1.6h2.35a.49.49,0,0,1,.48.48.49.49,0,0,1-.48.48h-2.83A.48.48,0,0,1,298.61,424Z" style="fill:#fff"></path><path d="M303.48,421.35a3.2,3.2,0,0,1,5.17-2.45.5.5,0,0,1,.1.7.5.5,0,0,1-.7.08,2.25,2.25,0,0,0-1.37-.47,2.13,2.13,0,0,0-1.56.63,2.06,2.06,0,0,0,0,3,2.13,2.13,0,0,0,1.56.63,2.41,2.41,0,0,0,1.19-.33V422h-1.24a.5.5,0,0,1-.5-.49.48.48,0,0,1,.5-.48h1.72a.48.48,0,0,1,.5.48v1.92a.59.59,0,0,1,0,.14l0,.05h0a.42.42,0,0,1-.17.21,3.19,3.19,0,0,1-5.16-2.43Z" style="fill:#fff"></path><path d="M311.76,424a.48.48,0,0,1-.47.48.47.47,0,0,1-.47-.48v-5h0a.47.47,0,0,1,.84-.3l2.8,3.88V419a.48.48,0,0,1,.47-.47.48.48,0,0,1,.48.47v5a.49.49,0,0,1-.48.48.44.44,0,0,1-.35-.18l-.05,0-2.77-3.84Z" style="fill:#fff"></path><path d="M320.58,423h-2.1l-.43,1.12a.48.48,0,0,1-.45.31.41.41,0,0,1-.16,0,.49.49,0,0,1-.29-.62l1.92-5.1a.49.49,0,0,1,.91,0l1.92,5.1a.49.49,0,0,1-.29.62.38.38,0,0,1-.16,0,.46.46,0,0,1-.44-.31Zm-.35-.95-.7-1.87-.71,1.87Z" style="fill:#fff"></path><path d="M324,424a.47.47,0,1,1-.94,0v-5h0a.47.47,0,0,1,.19-.4.48.48,0,0,1,.66.1l2.8,3.88V419a.47.47,0,0,1,.46-.47.48.48,0,0,1,.48.47v5a.49.49,0,0,1-.48.48.44.44,0,0,1-.35-.18.12.12,0,0,1-.05,0L324,420.39Z" style="fill:#fff"></path><path d="M329.5,421.34a3.21,3.21,0,0,1,5.18-2.44.5.5,0,0,1,.09.69.5.5,0,0,1-.69.09,2.17,2.17,0,0,0-1.4-.47,2.32,2.32,0,0,0-1.56.62,2.14,2.14,0,0,0-.63,1.51,2.11,2.11,0,0,0,.63,1.51,2.32,2.32,0,0,0,1.56.62,2.14,2.14,0,0,0,1.4-.48.53.53,0,0,1,.69.1.5.5,0,0,1-.09.69,3.21,3.21,0,0,1-5.18-2.44Z" style="fill:#fff"></path><path d="M340.5,419.21l-1.77,2.43V424a.47.47,0,0,1-.48.48.49.49,0,0,1-.48-.48v-2.34L336,419.21a.46.46,0,0,1,.1-.66.47.47,0,0,1,.66.1l1.48,2,1.48-2a.48.48,0,0,1,.77.56Z" style="fill:#fff"></path><path d="M347.83,419.35h-1.38V424a.48.48,0,1,1-.95,0v-4.63h-1.37a.48.48,0,0,1-.48-.48.47.47,0,0,1,.48-.48h3.7a.47.47,0,0,1,.47.48A.48.48,0,0,1,347.83,419.35Z" style="fill:#fff"></path><path d="M349.74,424v-5.11a.47.47,0,0,1,.47-.48H353a.48.48,0,0,1,0,1H350.7v1.59h2a.48.48,0,0,1,.47.48.47.47,0,0,1-.47.48h-2v1.6H353a.48.48,0,0,1,.48.48.49.49,0,0,1-.48.48h-2.83A.47.47,0,0,1,349.74,424Z" style="fill:#fff"></path><path d="M354.68,423a.46.46,0,0,1,.64-.06,2.83,2.83,0,0,0,1.65.67,1.87,1.87,0,0,0,1.08-.32.79.79,0,0,0,.38-.63.48.48,0,0,0-.08-.27.71.71,0,0,0-.26-.26,3.27,3.27,0,0,0-1.19-.41h0a4.65,4.65,0,0,1-1.11-.34,1.91,1.91,0,0,1-.81-.67,1.37,1.37,0,0,1-.2-.72,1.59,1.59,0,0,1,.7-1.26,2.56,2.56,0,0,1,1.49-.46,3.41,3.41,0,0,1,1.89.69.45.45,0,0,1,.12.62.43.43,0,0,1-.61.13,2.49,2.49,0,0,0-1.4-.56,1.69,1.69,0,0,0-1,.3.68.68,0,0,0-.32.54.39.39,0,0,0,.06.25.81.81,0,0,0,.23.22,2.74,2.74,0,0,0,1.08.38h0a5.12,5.12,0,0,1,1.2.37,2,2,0,0,1,.86.72,1.36,1.36,0,0,1,.21.73,1.68,1.68,0,0,1-.75,1.35,2.69,2.69,0,0,1-1.6.49,3.78,3.78,0,0,1-2.22-.87A.47.47,0,0,1,354.68,423Z" style="fill:#fff"></path><path d="M364.24,419.35h-1.38V424a.47.47,0,0,1-.48.48.48.48,0,0,1-.48-.48v-4.63h-1.36a.48.48,0,0,1-.48-.48.47.47,0,0,1,.48-.48h3.7a.48.48,0,0,1,.47.48A.48.48,0,0,1,364.24,419.35Z" style="fill:#fff"></path><g style="opacity:0.5"><path d="M324.75,436.19a49.27,49.27,0,0,1-17.51,2.17c-9.59-.72-18.59-4.28-24-6.86v-7.95a75.08,75.08,0,0,0,21.48,11.32C311,436.84,317.73,436.93,324.75,436.19Z" style="fill:#fff"></path><path d="M373.46,423.93v9.59c-5.41-1.68-14.13-3.06-26.3-1-7.73,1.31-15.23,2.92-22.41,3.66,8.89-2.55,17.64-6.7,27-9.57A64.75,64.75,0,0,1,373.46,423.93Z" style="fill:#fff"></path></g></g><g id="freepik--Character--inject-17"><path d="M200.08,318.19a107.49,107.49,0,0,1-20.86,13c11.32-19.09,9.6-62.23,8.23-56.08-6.62,29.41-25.12,61.63-32.16,63.22l-.12,0c-18.89,2.45-36-2.65-50.39-10.65a.19.19,0,0,1,0-.1c14.59-21.59,14-65.45,13-62.79C107.13,293.39,85,310.1,81.16,310.06h0c-14.2-13.58-21.72-27.14-19.7-28.51,14.74-10,27.28-35.82,38.6-63.1v0c11.19-26.89,16.84-52.48,32.57-76.49,14.4-22,43.16-26.13,59.44-14.9C234.78,156.5,209.2,311.05,200.08,318.19Z" style="fill:#263238"></path><path d="M155.65,128.21c-11.85,2.79-21.59,13.65-27.79,23.68-8.25,13.34-13.69,28.44-20.49,42.54C93.92,222.3,77,247.9,55.76,270.29a.52.52,0,0,0,.71.76c23-17.31,38.72-42.16,51.63-67.7,6.6-13.06,11.78-26.72,18-39.94a88.59,88.59,0,0,1,12.61-20.31c5.08-5.88,10.9-9.39,17.68-12.87A1.1,1.1,0,0,0,155.65,128.21Z" style="fill:#263238"></path><path d="M228.53,441.8H143.11c-3.71-14.58-9.43-37-14.41-56.57a.06.06,0,0,0,0,0c-.3-1.2-.61-2.39-.9-3.56-.19-.73-.37-1.45-.55-2.16-4.79-18.79-8.57-33.65-8.66-34s-.1-.37-.13-.5-.07-.28-.07-.28h82.47s.86,3,2.31,8.1l.34,1.19c2,7.1,5.06,17.71,8.49,29.76C217.25,402.19,223.47,424,228.53,441.8Z" style="fill:#37474f"></path><path d="M198.18,344.66v0c0,.05,0,.15,0,.28q0,1.45,0,2.91c0,2.47-.15,4.94-.31,7.41a229.22,229.22,0,0,1-3.78,28.76,304.59,304.59,0,0,1-9.57,37c-.35,1.05-.56,1.64-.58,1.7L177.32,426l-.53.27-13,6.47c-1.83.91-3.15,1.57-3.52,1.77l-.1.05s-.15,2.93-.33,7.22H74.33c1.78-15.11,3.52-29.66,3.52-29.66a115.59,115.59,0,0,1-1.69-26c0-1,.1-1.91.17-2.85s.15-2,.25-3a111.06,111.06,0,0,1,8.83-34.68c.25-.56.4-.85.4-.85h22.53l53.38,0h36.46Z" style="fill:#37474f"></path><path d="M160.25,434.33v.2c0,2.42-.07,4.85-.1,7.27h-.9c.2-2.43.36-4.88.65-7.31,0-.22,0-.43.07-.65a.14.14,0,0,1,.27,0C160.24,434,160.25,434.17,160.25,434.33Z" style="fill:#263238"></path><path d="M149.57,439c3.79-2.62,7.87-4.83,11.88-7.09s8.26-4.54,12.53-6.53c8.34-3.88,17.14-6.68,25.91-9.41.23-.07.37.3.16.39-8.45,3.63-16.64,7.79-25,11.52-4.23,1.87-8.49,3.67-12.73,5.53s-8.35,4-12.62,5.76A.1.1,0,0,1,149.57,439Z" style="fill:#263238"></path><path d="M172.69,397.65c.1-4.14.39-8.28.6-12.42.48-9.77.86-19.6,1.77-29.34a.3.3,0,0,1,.6,0c.13,7.56-.17,15.14-.32,22.69-.08,3.79-.19,7.57-.29,11.35a105.94,105.94,0,0,0-.07,10.84c.2,2.72.8,8,4.35,8.34,3.35.31,5.19-3.3,6-5.95,2.12-6.73,2.88-14,3.56-21,.41-4.15.82-8.28,1.07-12.44A113.51,113.51,0,0,0,190.4,357c0-.27.41-.25.42,0,.23,4.27.82,8.51,1,12.81s.16,8.53-.12,12.78c-.26,4.08-.61,8.18-1.22,12.23a44,44,0,0,1-2.63,10.81c-1.23,2.86-3.35,5.5-6.57,6.13a7,7,0,0,1-1.19.12c0,.88-.16,1.76-.22,2.62-.1,1.37-.27,2.74-.45,4.1a30,30,0,0,1-.84,4,14.55,14.55,0,0,1-1.39,3.78.21.21,0,0,1-.38-.11,18.38,18.38,0,0,1,.32-3.91c.18-1.33.37-2.67.64-4s.51-2.59.78-3.88c.18-.87.3-1.76.46-2.65a6.32,6.32,0,0,1-4.74-3.73C172.72,404.87,172.6,401.11,172.69,397.65Z" style="fill:#263238"></path><path d="M88.82,393c5.93.41,11.78,1.18,17.73.47a31,31,0,0,0,15.44-6c9.77-7.59,14.06-20,16.71-31.63a.21.21,0,0,1,.41.06c-1.1,10.09-3.28,20.53-9.8,28.66a31.38,31.38,0,0,1-10.39,8.56,30.54,30.54,0,0,1-13.74,2.83,66.33,66.33,0,0,1-16.46-2.22A.34.34,0,0,1,88.82,393Z" style="fill:#263238"></path><path d="M182.93,231.48c17.86,22.57,46.81,65.57,54.16,74.51,8,9.69,61.52,34.82,67.28,42.67,7,9.6-22.48,51.64-29,46.75-4.24-3.18-62.25-27.42-79.81-54.07C183.16,322.53,165,267.8,163,243.45,160.86,216.87,175.19,221.69,182.93,231.48Z" style="fill: rgb(247, 169, 160);"></path><path d="M287.58,337.79c22.82,4,46.75,11.59,63.58,29a12,12,0,0,1,3.49,7c7.68,7.66,6.37,13.59,6.37,13.59,5,9.32,2.79,15.2,2.79,15.2s8.92,9.1,4.31,15.4c-5.14,7.08-16.65-7.08-27.75-11-25.42-9-64.06-14.59-71.65-16.45Z" style="fill: rgb(247, 169, 160);"></path><path d="M320.33,378.89c7.43,2.79,14.8,5.34,21.81,9.11,7.7,4.15,14.41,9.43,21.37,14.63a.21.21,0,0,0,.28-.31c-11.12-11.42-27.83-20.26-43.34-23.76C320.08,378.47,320,378.75,320.33,378.89Z" style="fill:#263238"></path><path d="M323.51,362.76c7.08,3.12,19.48,8.67,37.33,24.83.06.05.17,0,.11-.1-10.19-12-22.5-20-37.29-25.06C323.2,362.27,323,362.56,323.51,362.76Z" style="fill:#263238"></path><path d="M325.38,354.13c11.84,5.75,18.57,10.87,29.19,19.69.06.05.17-.05.1-.11-11-11.28-16.29-14.12-29.15-20C325.08,353.49,324.92,353.9,325.38,354.13Z" style="fill:#263238"></path><path d="M309.05,398.15c-3.77.14-3.72,2.12,1.71,6.07s30.28,14.95,25.7,23.29-39.39-7.69-47.93-14.95-19.81-22-19.81-22C276.12,392.32,294.49,394.88,309.05,398.15Z" style="fill: rgb(247, 169, 160);"></path><path d="M205.78,356.87l42-46.22s-11-7.52-15.67-13.23S208.75,262,190.92,238.93s-32.44-23.31-28.14,11.54S186.9,333.34,193.15,343,205.78,356.87,205.78,356.87Z" style="fill:#2C1550"></path><path d="M173.11,230a1.5,1.5,0,1,1-1.5-1.5A1.5,1.5,0,0,1,173.11,230Zm-1.5,24.27a1.5,1.5,0,1,0,1.5,1.5A1.5,1.5,0,0,0,171.61,254.28Zm20.83,0a1.5,1.5,0,1,0,1.5,1.5A1.5,1.5,0,0,0,192.44,254.28Zm-30.35-12c0,.74.07,1.5.12,2.29a1.48,1.48,0,0,0,.48-1.09A1.51,1.51,0,0,0,162.09,242.26ZM182,242a1.5,1.5,0,1,0,1.5,1.5A1.5,1.5,0,0,0,182,242Zm-10.41,38.09a1.5,1.5,0,1,0,1.5,1.5A1.5,1.5,0,0,0,171.61,280.05Zm20.83,0a1.5,1.5,0,1,0,1.5,1.5A1.5,1.5,0,0,0,192.44,280.05Zm20.83,0a1.5,1.5,0,1,0,1.5,1.5A1.5,1.5,0,0,0,213.27,280.05ZM182,267.73a1.5,1.5,0,1,0,1.5,1.5A1.5,1.5,0,0,0,182,267.73Zm20.84,0a1.5,1.5,0,1,0,1.5,1.5A1.5,1.5,0,0,0,202.86,267.73Zm-10.42,38.09a1.5,1.5,0,1,0,1.5,1.5A1.5,1.5,0,0,0,192.44,305.82Zm20.83,0a1.5,1.5,0,1,0,1.5,1.5A1.5,1.5,0,0,0,213.27,305.82Zm20.84,0a1.5,1.5,0,1,0,1.5,1.5A1.5,1.5,0,0,0,234.11,305.82ZM182,293.49a1.5,1.5,0,1,0,1.5,1.5A1.5,1.5,0,0,0,182,293.49Zm20.84,0a1.5,1.5,0,1,0,1.5,1.5A1.5,1.5,0,0,0,202.86,293.49Zm20.83,0a1.5,1.5,0,1,0,1.5,1.5A1.5,1.5,0,0,0,223.69,293.49Zm-31.25,38.09a1.5,1.5,0,1,0,1.5,1.5A1.5,1.5,0,0,0,192.44,331.58Zm20.83,0a1.5,1.5,0,1,0,1.5,1.5A1.5,1.5,0,0,0,213.27,331.58Zm-31.1-12.31c.34.84.67,1.66,1,2.47a1.49,1.49,0,0,0,.37-1A1.51,1.51,0,0,0,182.17,319.27Zm20.69,0a1.5,1.5,0,1,0,1.5,1.5A1.5,1.5,0,0,0,202.86,319.26Zm20.83,0a1.5,1.5,0,1,0,1.5,1.5A1.5,1.5,0,0,0,223.69,319.26ZM202.86,345a1.5,1.5,0,1,0,1.5,1.5A1.5,1.5,0,0,0,202.86,345Z" style="fill:#fff"></path><path d="M236.26,306.88c-1.26,1.17-2.35,2.55-3.49,3.84l-3.43,3.89-6.69,7.62q-6.78,7.71-13.55,15.44c-2.56,2.92-5.23,5.79-7.57,8.9a.08.08,0,0,0,.12.11c2.59-2.3,4.95-4.88,7.3-7.4s4.69-5.1,7-7.67q6.89-7.64,13.42-15.55c1.24-1.5,2.48-3,3.7-4.52a54.7,54.7,0,0,0,3.45-4.46C236.64,306.91,236.4,306.75,236.26,306.88Z" style="fill:#263238"></path><path d="M218.13,386.13l-10.38-58s14.16-20.34,8.4-36.34c-2.91-8.1-30.17-56.19-42.59-67-11.66-10.13-30.92-2.42-37.93,4.44-38.84,38-50.56,81.8-66.07,159.49Z" style="fill:#2C1550"></path><path d="M152.27,230a1.5,1.5,0,1,1-1.5-1.5A1.5,1.5,0,0,1,152.27,230Zm19.34-1.5a1.5,1.5,0,1,0,1.5,1.5A1.5,1.5,0,0,0,171.61,228.51Zm-41.67,25.77a1.5,1.5,0,1,0,1.5,1.5A1.5,1.5,0,0,0,129.94,254.28Zm20.83,0a1.5,1.5,0,1,0,1.5,1.5A1.5,1.5,0,0,0,150.77,254.28Zm20.84,0a1.5,1.5,0,1,0,1.5,1.5A1.5,1.5,0,0,0,171.61,254.28Zm20.83,0a1.5,1.5,0,1,0,1.5,1.5A1.5,1.5,0,0,0,192.44,254.28ZM140.36,242a1.5,1.5,0,1,0,1.5,1.5A1.51,1.51,0,0,0,140.36,242Zm20.83,0a1.5,1.5,0,1,0,1.5,1.5A1.5,1.5,0,0,0,161.19,242ZM182,242a1.5,1.5,0,1,0,1.5,1.5A1.5,1.5,0,0,0,182,242Zm-72.91,38.09a1.5,1.5,0,1,0,1.5,1.5A1.51,1.51,0,0,0,109.11,280.05Zm20.83,0a1.5,1.5,0,1,0,1.5,1.5A1.5,1.5,0,0,0,129.94,280.05Zm20.83,0a1.5,1.5,0,1,0,1.5,1.5A1.5,1.5,0,0,0,150.77,280.05Zm20.84,0a1.5,1.5,0,1,0,1.5,1.5A1.5,1.5,0,0,0,171.61,280.05Zm20.83,0a1.5,1.5,0,1,0,1.5,1.5A1.5,1.5,0,0,0,192.44,280.05Zm-72.92-12.32a1.5,1.5,0,1,0,1.5,1.5A1.5,1.5,0,0,0,119.52,267.73Zm20.84,0a1.5,1.5,0,1,0,1.5,1.5A1.51,1.51,0,0,0,140.36,267.73Zm20.83,0a1.5,1.5,0,1,0,1.5,1.5A1.5,1.5,0,0,0,161.19,267.73Zm20.83,0a1.5,1.5,0,1,0,1.5,1.5A1.5,1.5,0,0,0,182,267.73Zm21.52.17a1.43,1.43,0,0,0-.68-.17,1.5,1.5,0,1,0,1.49,1.57ZM89.46,306.41l-.75,2.33a1.49,1.49,0,0,0,1.07-1.42A1.44,1.44,0,0,0,89.46,306.41Zm19.65-.59a1.5,1.5,0,1,0,1.5,1.5A1.51,1.51,0,0,0,109.11,305.82Zm20.83,0a1.5,1.5,0,1,0,1.5,1.5A1.5,1.5,0,0,0,129.94,305.82Zm20.83,0a1.5,1.5,0,1,0,1.5,1.5A1.5,1.5,0,0,0,150.77,305.82Zm20.84,0a1.5,1.5,0,1,0,1.5,1.5A1.5,1.5,0,0,0,171.61,305.82Zm20.83,0a1.5,1.5,0,1,0,1.5,1.5A1.5,1.5,0,0,0,192.44,305.82Zm20.83,0a1.5,1.5,0,1,0,1.5,1.5A1.5,1.5,0,0,0,213.27,305.82ZM98.69,293.49a1.5,1.5,0,1,0,1.5,1.5A1.5,1.5,0,0,0,98.69,293.49Zm20.83,0A1.5,1.5,0,1,0,121,295,1.5,1.5,0,0,0,119.52,293.49Zm20.84,0a1.5,1.5,0,1,0,1.5,1.5A1.51,1.51,0,0,0,140.36,293.49Zm20.83,0a1.5,1.5,0,1,0,1.5,1.5A1.5,1.5,0,0,0,161.19,293.49Zm20.83,0a1.5,1.5,0,1,0,1.5,1.5A1.5,1.5,0,0,0,182,293.49Zm20.84,0a1.5,1.5,0,1,0,1.5,1.5A1.5,1.5,0,0,0,202.86,293.49ZM88.27,331.58a1.5,1.5,0,1,0,1.5,1.5A1.5,1.5,0,0,0,88.27,331.58Zm20.84,0a1.5,1.5,0,1,0,1.5,1.5A1.51,1.51,0,0,0,109.11,331.58Zm20.83,0a1.5,1.5,0,1,0,1.5,1.5A1.5,1.5,0,0,0,129.94,331.58Zm20.83,0a1.5,1.5,0,1,0,1.5,1.5A1.5,1.5,0,0,0,150.77,331.58Zm20.84,0a1.5,1.5,0,1,0,1.5,1.5A1.5,1.5,0,0,0,171.61,331.58Zm20.83,0a1.5,1.5,0,1,0,1.5,1.5A1.5,1.5,0,0,0,192.44,331.58ZM98.69,319.26a1.5,1.5,0,1,0,1.5,1.5A1.5,1.5,0,0,0,98.69,319.26Zm20.83,0a1.5,1.5,0,1,0,1.5,1.5A1.5,1.5,0,0,0,119.52,319.26Zm20.84,0a1.5,1.5,0,1,0,1.5,1.5A1.51,1.51,0,0,0,140.36,319.26Zm20.83,0a1.5,1.5,0,1,0,1.5,1.5A1.5,1.5,0,0,0,161.19,319.26Zm20.83,0a1.5,1.5,0,1,0,1.5,1.5A1.5,1.5,0,0,0,182,319.26Zm20.84,0a1.5,1.5,0,1,0,1.5,1.5A1.5,1.5,0,0,0,202.86,319.26ZM88.27,357.35a1.5,1.5,0,1,0,1.5,1.5A1.5,1.5,0,0,0,88.27,357.35Zm20.84,0a1.5,1.5,0,1,0,1.5,1.5A1.51,1.51,0,0,0,109.11,357.35Zm20.83,0a1.5,1.5,0,1,0,1.5,1.5A1.5,1.5,0,0,0,129.94,357.35Zm20.83,0a1.5,1.5,0,1,0,1.5,1.5A1.5,1.5,0,0,0,150.77,357.35Zm20.84,0a1.5,1.5,0,1,0,1.5,1.5A1.5,1.5,0,0,0,171.61,357.35Zm20.83,0a1.5,1.5,0,1,0,1.5,1.5A1.5,1.5,0,0,0,192.44,357.35Zm20.54,0a1.49,1.49,0,0,0,.29,3l.24,0Zm-134.19-12c-.21.88-.4,1.75-.61,2.62a1.49,1.49,0,0,0,.61-2.62Zm19.9-.33a1.5,1.5,0,1,0,1.5,1.5A1.5,1.5,0,0,0,98.69,345Zm20.83,0a1.5,1.5,0,1,0,1.5,1.5A1.5,1.5,0,0,0,119.52,345Zm20.84,0a1.5,1.5,0,1,0,1.5,1.5A1.51,1.51,0,0,0,140.36,345Zm20.83,0a1.5,1.5,0,1,0,1.5,1.5A1.5,1.5,0,0,0,161.19,345ZM182,345a1.5,1.5,0,1,0,1.5,1.5A1.5,1.5,0,0,0,182,345Zm20.84,0a1.5,1.5,0,1,0,1.5,1.5A1.5,1.5,0,0,0,202.86,345ZM88.27,383.12a1.5,1.5,0,1,0,1.5,1.5A1.5,1.5,0,0,0,88.27,383.12Zm20.84,0a1.5,1.5,0,1,0,1.5,1.5A1.51,1.51,0,0,0,109.11,383.12Zm20.83,0a1.5,1.5,0,1,0,1.5,1.5A1.5,1.5,0,0,0,129.94,383.12Zm20.83,0a1.5,1.5,0,1,0,1.5,1.5A1.5,1.5,0,0,0,150.77,383.12Zm20.84,0a1.5,1.5,0,1,0,1.5,1.5A1.5,1.5,0,0,0,171.61,383.12Zm20.83,0a1.5,1.5,0,1,0,1.5,1.5A1.5,1.5,0,0,0,192.44,383.12Zm20.83,0a1.5,1.5,0,1,0,1.5,1.5A1.5,1.5,0,0,0,213.27,383.12ZM77.85,370.8a1.5,1.5,0,1,0,1.51,1.5A1.5,1.5,0,0,0,77.85,370.8Zm20.84,0a1.5,1.5,0,1,0,1.5,1.5A1.5,1.5,0,0,0,98.69,370.8Zm20.83,0a1.5,1.5,0,1,0,1.5,1.5A1.5,1.5,0,0,0,119.52,370.8Zm20.84,0a1.5,1.5,0,1,0,1.5,1.5A1.51,1.51,0,0,0,140.36,370.8Zm20.83,0a1.5,1.5,0,1,0,1.5,1.5A1.5,1.5,0,0,0,161.19,370.8Zm20.83,0a1.5,1.5,0,1,0,1.5,1.5A1.5,1.5,0,0,0,182,370.8Zm20.84,0a1.5,1.5,0,1,0,1.5,1.5A1.5,1.5,0,0,0,202.86,370.8Z" style="fill:#fff"></path><path d="M190.61,329a82.89,82.89,0,0,0-21.36,3.56c-7,2-13.76,4.65-20.51,7.28-3.86,1.51-7.76,2.94-11.63,4.44a.08.08,0,0,0,0,.16c7-1.75,13.87-4.27,20.73-6.6s13.73-4.43,20.72-6.25a97.8,97.8,0,0,1,12-2.16A.22.22,0,0,0,190.61,329Z" style="fill:#263238"></path><path d="M203.34,332.65a66.07,66.07,0,0,0-22.44,2c-.09,0-.07.17,0,.16,3.72-.44,7.43-.88,11.16-1.19s7.51-.51,11.26-.76A.1.1,0,1,0,203.34,332.65Z" style="fill:#263238"></path><path d="M218.22,298.88a42.64,42.64,0,0,0-4.88-14.78c-2.54-4.94-5.49-9.68-8.35-14.43l-1.11-1.83c-.21-.67-.49-1.33-.74-2s-.59-1.52-.9-2.28c-.62-1.49-1.27-3-1.93-4.43,0-.05-.11,0-.09,0q.79,2.35,1.66,4.69c.24.62.49,1.24.74,1.87q-4-6.63-8.05-13.26c0-.09-.19,0-.14.09,2.84,5.08,5.65,10.18,8.51,15.25,2.74,4.82,5.59,9.59,8.18,14.5a49.32,49.32,0,0,1,5.44,14.45,34.28,34.28,0,0,1-1.19,15.32c-1.62,5.66-4.32,11-6.92,16.21a.19.19,0,0,0,.34.19C214.53,320,219.4,309.58,218.22,298.88Z" style="fill:#263238"></path><path d="M144.43,229.23c.51,2.69,12.56,24.88,26.85,22.81,6-.87,2.65-24.1,2.65-24.1l6.37-23.82-29.38-20.4S144.23,228.09,144.43,229.23Z" style="fill: rgb(247, 169, 160);"></path><path d="M180.3,204.12l-6.18,23.12a48.88,48.88,0,0,1-25.7-26.83c1.35-9,2.5-16.69,2.5-16.69Z" style="fill:#263238"></path><path d="M214.51,173.68c.83,40.38-23.26,45.44-32,45.62-7.91.15-34.85-.33-39.85-40.41s13.51-53.24,31.57-54.55S213.67,133.29,214.51,173.68Z" style="fill: rgb(247, 169, 160);"></path><path d="M206.93,167.68a23.33,23.33,0,0,1-2.7-.71,4.5,4.5,0,0,1-2.61-1.24,1.44,1.44,0,0,1,.09-1.76,3.57,3.57,0,0,1,3.55-.66,5.26,5.26,0,0,1,3.19,2A1.53,1.53,0,0,1,206.93,167.68Z" style="fill:#263238"></path><path d="M179.09,169.82a25.39,25.39,0,0,0,2.75-.44,4.5,4.5,0,0,0,2.73-1,1.44,1.44,0,0,0,.08-1.75,3.56,3.56,0,0,0-3.47-1,5.2,5.2,0,0,0-3.37,1.69A1.53,1.53,0,0,0,179.09,169.82Z" style="fill:#263238"></path><path d="M184.92,177.61c0-.1-.22.13-.22.24,0,2.75-.43,5.9-2.94,6.75-.08,0-.07.17,0,.16C184.83,184.41,185.38,180.21,184.92,177.61Z" style="fill:#263238"></path><path d="M182.54,174.68c-4.41-.46-5,8.41-.9,8.82S186.24,175.05,182.54,174.68Z" style="fill:#263238"></path><path d="M180.77,175c-.81.45-1.62,1.29-2.56,1.32-1.09,0-1.84-.95-2.49-1.88-.07-.1-.15,0-.16.09-.13,1.69.41,3.48,2.21,3.85,1.64.34,2.93-1.09,3.47-2.77C181.34,175.33,181.09,174.85,180.77,175Z" style="fill:#263238"></path><path d="M201.11,177.48c0-.11.21.14.2.26-.29,2.73-.16,5.92,2.26,7,.07,0,.06.17,0,.15C200.54,184.25,200.4,180,201.11,177.48Z" style="fill:#263238"></path><path d="M203.77,174.79c4.44,0,4.14,8.86,0,8.87S200.05,174.8,203.77,174.79Z" style="fill:#263238"></path><path d="M205.6,175.44c.69.49,1.35,1.37,2.19,1.45s1.72-.84,2.37-1.74c.07-.09.13,0,.13.1,0,1.7-.63,3.45-2.27,3.72s-2.54-1.24-2.88-2.95C205.07,175.71,205.33,175.24,205.6,175.44Z" style="fill:#263238"></path><path d="M183.82,198.76c.58.71,1.14,1.66,2.12,1.86a7.4,7.4,0,0,0,3-.37.1.1,0,0,1,.1.16,3.71,3.71,0,0,1-3.63,1.1,2.94,2.94,0,0,1-1.89-2.66C183.52,198.69,183.73,198.65,183.82,198.76Z" style="fill:#263238"></path><path d="M195.83,189.44s.35,4.13.25,6.07c0,.18-.49.24-1.14.24,0,0-.05,0-.08,0a9.21,9.21,0,0,1-8.75-3.91.2.2,0,0,1,.3-.25,13.93,13.93,0,0,0,8.27,2.85c.17-.53-.83-7.06-.52-7.06a16.71,16.71,0,0,1,4.34,1.22c-.48-8.62-2.33-17.11-2.68-25.71a.26.26,0,0,1,.51-.09c2.58,8.75,3.34,18.67,4.06,27.57C200.49,191.47,196.59,189.81,195.83,189.44Z" style="fill:#263238"></path><path d="M143.49,176.09c9.6.72,10.51-14.43,10.51-14.43s11-.27,12.92-17.8c0,0,4.54,11,19.17,14.09,3.1.66-6.85-8.13-6.85-8.13s11.81,12.19,35.4,9.4c1.66-.19-.24-25-18-34.59s-34.52-5.91-46.59,4.88c0,0-13.8,5.3-16.14,17.89S139.75,175.82,143.49,176.09Z" style="fill:#263238"></path><path d="M149.54,179.1s-8-13.16-13.89-10.4-.5,21.43,6,24.37a6.82,6.82,0,0,0,9.37-3.06Z" style="fill: rgb(247, 169, 160);"></path><path d="M137.34,174a.1.1,0,0,0-.05.18c4.58,2.21,6.76,6.73,8.2,11.37-1.29-1.83-3.13-2.91-5.57-1.4-.12.08,0,.28.12.26a4.19,4.19,0,0,1,4.51,1.76,20.81,20.81,0,0,1,2,3.88c.19.44,1,.26.83-.23a.35.35,0,0,0,0-.11C147.84,183.73,143.73,175,137.34,174Z" style="fill:#263238"></path><polygon points="306.62 294.98 270.9 294.98 205.9 293.46 205.9 281.75 270.9 279.73 306.62 279.73 306.62 294.98" style="fill:#ebebeb"></polygon><polygon points="306.62 279.73 306.62 294.98 270.9 294.98 205.9 293.46 205.9 281.75 270.9 279.73 306.62 279.73" style="fill:#c7c7c7"></polygon><path d="M306.62,279.73V295H270.9c-5-5.29,0-15.25,0-15.25Z" style="fill:#2C1550"></path><path d="M118.75,248.78C84.92,297.15,48.44,367.46,68,382.61c13,10.06,55.25-60.56,55.75-61.5,1.7-3.21,11-25.35,21-65.73C154.09,218.07,133.86,227.17,118.75,248.78Z" style="fill: rgb(247, 169, 160);"></path><path d="M118.75,248.78C84.92,297.15,48.44,367.46,68,382.61c13,10.06,55.25-60.56,55.75-61.5,1.7-3.21,11-25.35,21-65.73C154.09,218.07,133.86,227.17,118.75,248.78Z" style="fill:#2C1550"></path><path d="M131.44,255.78a1.5,1.5,0,1,1-1.5-1.5A1.5,1.5,0,0,1,131.44,255.78Z" style="fill:#fff"></path><path d="M141.86,243.46a1.51,1.51,0,1,1-1.5-1.5A1.5,1.5,0,0,1,141.86,243.46Z" style="fill:#fff"></path><path d="M110.61,281.55a1.51,1.51,0,1,1-1.5-1.5A1.5,1.5,0,0,1,110.61,281.55Z" style="fill:#fff"></path><path d="M131.44,281.55a1.5,1.5,0,1,1-1.5-1.5A1.5,1.5,0,0,1,131.44,281.55Z" style="fill:#fff"></path><path d="M121,269.23a1.5,1.5,0,1,1-1.5-1.5A1.5,1.5,0,0,1,121,269.23Z" style="fill:#fff"></path><path d="M141.49,268.25c-.22.8-.43,1.6-.65,2.39a1.32,1.32,0,0,1-.48.09,1.5,1.5,0,1,1,1.13-2.48Z" style="fill:#fff"></path><path d="M89.77,307.32a1.5,1.5,0,1,1-1.5-1.5A1.5,1.5,0,0,1,89.77,307.32Z" style="fill:#fff"></path><path d="M110.61,307.32a1.51,1.51,0,1,1-1.5-1.5A1.5,1.5,0,0,1,110.61,307.32Z" style="fill:#fff"></path><path d="M129.89,305.82c-.32.91-.63,1.79-.94,2.62a1.46,1.46,0,0,1-.51-1.12A1.49,1.49,0,0,1,129.89,305.82Z" style="fill:#fff"></path><path d="M100.19,295a1.5,1.5,0,1,1-1.5-1.5A1.5,1.5,0,0,1,100.19,295Z" style="fill:#fff"></path><path d="M121,295a1.5,1.5,0,1,1-1.5-1.5A1.5,1.5,0,0,1,121,295Z" style="fill:#fff"></path><path d="M89.77,333.08a1.5,1.5,0,1,1-1.5-1.5A1.5,1.5,0,0,1,89.77,333.08Z" style="fill:#fff"></path><path d="M110.61,333.08a1.51,1.51,0,1,1-1.5-1.5A1.5,1.5,0,0,1,110.61,333.08Z" style="fill:#fff"></path><path d="M79.35,320.76a1.49,1.49,0,0,1-2.91.47c.28-.63.56-1.24.85-1.87a1.74,1.74,0,0,1,.56-.1A1.49,1.49,0,0,1,79.35,320.76Z" style="fill:#fff"></path><path d="M100.19,320.76a1.5,1.5,0,1,1-1.5-1.5A1.5,1.5,0,0,1,100.19,320.76Z" style="fill:#fff"></path><path d="M121,320.76a1.5,1.5,0,1,1-1.5-1.5A1.5,1.5,0,0,1,121,320.76Z" style="fill:#fff"></path><path d="M68.94,358.85a1.5,1.5,0,1,1-1.5-1.5A1.5,1.5,0,0,1,68.94,358.85Z" style="fill:#fff"></path><path d="M89.77,358.85a1.5,1.5,0,1,1-1.5-1.5A1.5,1.5,0,0,1,89.77,358.85Z" style="fill:#fff"></path><path d="M79.36,346.53a1.51,1.51,0,1,1-1.51-1.5A1.51,1.51,0,0,1,79.36,346.53Z" style="fill:#fff"></path><path d="M100.19,346.53a1.5,1.5,0,1,1-1.5-1.5A1.5,1.5,0,0,1,100.19,346.53Z" style="fill:#fff"></path><path d="M79.36,372.3a1.51,1.51,0,1,1-1.51-1.5A1.51,1.51,0,0,1,79.36,372.3Z" style="fill:#fff"></path><path d="M142.34,269.88c-1,2.29-2,4.61-2.9,6.94.15-.6.31-1.2.46-1.8,1.22-4.9,2.39-9.81,3.56-14.72a.08.08,0,0,0-.16,0c-2.58,8.54-5.23,17.05-7.83,25.58s-5.19,17-8.16,25.38c-1.69,4.75-3.4,9.54-5.42,14.16a.08.08,0,0,0,.14.08c1.89-4,3.81-8,5.5-12.18s3.29-8.23,4.73-12.42q3.28-9.51,5.91-19.18A120.57,120.57,0,0,0,142.6,270C142.65,269.83,142.4,269.73,142.34,269.88Z" style="fill:#263238"></path><path d="M68.05,382.54c18.22,13.4,81.11-3.82,120.24-21.69,7.45-3.4-27.23-69.13-34.73-64.61C110.76,322,48.09,367.88,68.05,382.54Z" style="fill: rgb(247, 169, 160);"></path><path d="M250.51,285.8c.48,7.82-18.92,7.36-18.92,7.36s4.77,2.58,6.32,7.55c1.78,5.69-6.36,11-6.36,11a17.85,17.85,0,0,1,5.39,9c1.16,5.62-6.3,12.12-6.3,12.12a15.67,15.67,0,0,1-.25,10.92c-4.09,9.18-19.52,10.22-28.94,12.76a203.48,203.48,0,0,0-30.72,11.7l-21.64-69.36s40-26.86,51.57-26.95C210.43,271.81,249.79,273.83,250.51,285.8Z" style="fill: rgb(247, 169, 160);"></path><path d="M231.42,293c-10.4-2.41-21.35-2.32-31.92-2.12a.19.19,0,0,0,0,.37c10.51-.32,21.35,2.16,31.85,2.25A.25.25,0,0,0,231.42,293Z" style="fill:#263238"></path><path d="M231.22,310.9a28.16,28.16,0,0,0-7.28,0c-2.57.18-5.14.41-7.7.67-5.14.52-10.26,1.16-15.36,2-.23,0-.23.39,0,.36,5.12-.51,10.24-.95,15.38-1.25,2.57-.15,5.14-.27,7.71-.38a33.88,33.88,0,0,0,7.26-.65A.37.37,0,0,0,231.22,310.9Z" style="fill:#263238"></path><path d="M230.42,332.84c-2-.5-4.49.09-6.55.35-2.33.28-4.67.56-7,.82-4.68.53-9.35,1.05-14,1.41-.24,0-.23.38,0,.36,4.76-.34,9.53-.62,14.3-1q3.51-.28,7-.6c2-.19,4.5-.19,6.31-1.11A.13.13,0,0,0,230.42,332.84Z" style="fill:#263238"></path><path d="M212.39,354.07a64.08,64.08,0,0,0,7.67-2.61,24,24,0,0,0,6.81-4,11.25,11.25,0,0,0,1.3-1.38,9.65,9.65,0,0,0,.89-1.62,16.58,16.58,0,0,0,1.1-3.72,19.08,19.08,0,0,0-.33-7.75l-.11-.44.32-.24a22.75,22.75,0,0,0,2.26-2,24.78,24.78,0,0,0,2-2.32,19.44,19.44,0,0,0,1.66-2.6,14.81,14.81,0,0,0,1-2.93,11.06,11.06,0,0,1-.65,3.1,16.34,16.34,0,0,1-1.41,2.88,21.68,21.68,0,0,1-1.9,2.58,23.52,23.52,0,0,1-2.27,2.31l.21-.69a18.74,18.74,0,0,1,.6,8.38,15.76,15.76,0,0,1-1.21,4.07,10.5,10.5,0,0,1-1.09,1.91,11.21,11.21,0,0,1-1.53,1.55,22.12,22.12,0,0,1-7.39,3.8,34.7,34.7,0,0,1-4,1.06A39.53,39.53,0,0,1,212.39,354.07Z" style="fill:#263238"></path></g><g id="freepik--Sink--inject-17"><polygon points="453.01 441.8 402.26 442.04 351.5 442.13 250 442.3 148.5 442.13 97.74 442.05 46.99 441.8 97.74 441.56 148.5 441.47 250 441.3 351.5 441.47 402.26 441.56 453.01 441.8" style="fill:#263238"></polygon></g><g id="freepik--speech-bubble--inject-17"><path d="M363.49,229a47.72,47.72,0,0,1-79.75,30.19l-23.88,3.51,11.95-20.65A47.73,47.73,0,1,1,363.49,229Z" style="fill:#fff"></path><path d="M363.73,222.88q0,1.19,0,2.37c0,.42,0,.84-.05,1.26,0,.84-.11,1.69-.2,2.53a47.46,47.46,0,0,1-2.67,11.51h-.09l-64.37,1.5H270.76l0,0a47.77,47.77,0,0,1-1.58-31h27.15l66,2.05h.12c.08.35.16.7.23,1.05s.13.63.19.94.16.82.22,1.22.12.71.17,1.07a.13.13,0,0,0,0,.06c0,.35.09.7.13,1.06s.08.73.12,1.1.07.74.09,1.11.06.75.07,1.12S363.72,222.51,363.73,222.88Z" style="fill:#c7c7c7"></path><path d="M296.35,242.05H270.76l0,0a47.77,47.77,0,0,1-1.58-31h27.15S306.6,231.27,296.35,242.05Z" style="fill:#2C1550"></path><rect x="312.82" y="220.65" width="31.63" height="11.08" style="fill:#fff"></rect><rect x="321.06" y="220.65" width="2.34" height="11.08" style="fill:#2C1550"></rect><path d="M363.49,229a48.09,48.09,0,0,1-9.64,24.2,52.43,52.43,0,0,1-4.32,5,53.79,53.79,0,0,1-5,4.26A47.3,47.3,0,0,1,333,268.9,48,48,0,0,1,320.12,272a47.32,47.32,0,0,1-6.63.13,41.86,41.86,0,0,1-6.6-.69,48.15,48.15,0,0,1-23.62-11.66l.57.17L260,263.58l-1.73.26.88-1.52L271,241.63l-.05.82a48.27,48.27,0,0,1,2.94-42.55A48.82,48.82,0,0,1,288.84,184a48.49,48.49,0,0,1,42-5.65,48.77,48.77,0,0,1,18.41,11.28A48,48,0,0,1,363.49,229Zm0,0a47.21,47.21,0,0,0-54.13-51.65,46.92,46.92,0,0,0-19.72,7.78,49.25,49.25,0,0,0-14.28,15.58A47.27,47.27,0,0,0,269.3,221a47.79,47.79,0,0,0,3.36,20.79l.18.43-.23.39-12,20.6-.85-1.26,23.9-3.35.33,0,.23.22a47,47,0,0,0,22.86,11.77,41.43,41.43,0,0,0,6.47.79,46,46,0,0,0,6.54,0,47.18,47.18,0,0,0,12.74-2.81,44.37,44.37,0,0,0,11.52-6.2,53.26,53.26,0,0,0,5-4.21,54.84,54.84,0,0,0,4.34-4.93A48,48,0,0,0,363.49,229Z" style="fill:#263238"></path></g></svg>