<svg xmlns="http://www.w3.org/2000/svg" viewBox="0 0 407.19 427.52"><g id="freepik--background-complete--inject-30"><g><g><rect x="40.89" y="64.93" width="105.42" height="148.51" transform="translate(115.12 -27.16) rotate(41.29)" style="fill:#ebebeb;"></rect><path d="M130.14,95.92l-.02,.02c-4.15,4.74-11.1,5.43-15.53,1.56l-17.8-15.57c-4.43-3.87-4.67-10.85-.52-15.6l.02-.02c4.15-4.74,11.12-5.45,15.55-1.58l17.8,15.57c4.43,3.87,4.65,10.88,.5,15.62Z" style="fill:#dbdbdb;"></path><path d="M111.45,117.19l-.02,.02c-4.15,4.74-11.1,5.43-15.53,1.56l-17.8-15.57c-4.43-3.87-4.67-10.85-.52-15.6l.02-.02c4.15-4.74,11.12-5.45,15.55-1.58l17.8,15.57c4.43,3.87,4.65,10.88,.5,15.62Z" style="fill:#dbdbdb;"></path><path d="M92.77,138.47l-.02,.02c-4.15,4.74-11.1,5.43-15.53,1.56l-17.8-15.57c-4.43-3.87-4.67-10.85-.52-15.6l.02-.02c4.15-4.74,11.12-5.45,15.55-1.58l17.8,15.57c4.43,3.87,4.65,10.88,.5,15.62Z" style="fill:#dbdbdb;"></path><path d="M74.08,159.74l-.02,.02c-4.15,4.74-11.1,5.43-15.53,1.56l-17.8-15.57c-4.43-3.87-4.67-10.85-.52-15.6l.02-.02c4.15-4.74,11.12-5.45,15.55-1.58l17.8,15.57c4.43,3.87,4.65,10.88,.5,15.62Z" style="fill:#dbdbdb;"></path><path d="M55.4,181.02l-.02,.02c-4.15,4.74-11.1,5.43-15.53,1.56l-17.8-15.57c-4.43-3.87-4.67-10.85-.52-15.6l.02-.02c4.15-4.74,11.12-5.45,15.55-1.58l17.8,15.57c4.43,3.87,4.65,10.88,.5,15.62Z" style="fill:#dbdbdb;"></path><path d="M165.59,127.06l-.02,.02c-4.15,4.74-11.1,5.43-15.53,1.56l-17.8-15.57c-4.43-3.87-4.67-10.85-.52-15.6l.02-.02c4.15-4.74,11.12-5.45,15.55-1.58l17.8,15.57c4.43,3.87,4.65,10.88,.5,15.62Z" style="fill:#dbdbdb;"></path><path d="M146.91,148.33l-.02,.02c-4.15,4.74-11.1,5.43-15.53,1.56l-17.8-15.57c-4.43-3.87-4.67-10.85-.52-15.6l.02-.02c4.15-4.74,11.12-5.45,15.55-1.58l17.8,15.57c4.43,3.87,4.65,10.88,.5,15.62Z" style="fill:#dbdbdb;"></path><path d="M128.22,169.61l-.02,.02c-4.15,4.74-11.1,5.43-15.53,1.56l-17.8-15.57c-4.43-3.87-4.67-10.85-.52-15.6l.02-.02c4.15-4.74,11.12-5.45,15.55-1.58l17.8,15.57c4.43,3.87,4.65,10.88,.5,15.62Z" style="fill:#dbdbdb;"></path><path d="M109.54,190.88l-.02,.02c-4.15,4.74-11.1,5.43-15.53,1.56l-17.8-15.57c-4.43-3.87-4.67-10.85-.52-15.6l.02-.02c4.15-4.74,11.12-5.45,15.55-1.58l17.8,15.57c4.43,3.87,4.65,10.88,.5,15.62Z" style="fill:#dbdbdb;"></path><path d="M90.85,212.16l-.02,.02c-4.15,4.74-11.1,5.43-15.53,1.56l-17.8-15.57c-4.43-3.87-4.67-10.85-.52-15.6l.02-.02c4.15-4.74,11.12-5.45,15.55-1.58l17.8,15.57c4.43,3.87,4.65,10.88,.5,15.62Z" style="fill:#dbdbdb;"></path><g><g><path d="M128.59,94.58l-.02,.02c-3.52,4.02-9.63,4.41-13.66,.89l-16.18-14.15c-4.02-3.52-4.45-9.63-.93-13.65l.02-.02c3.52-4.02,9.65-4.43,13.68-.91l16.18,14.15c4.02,3.52,4.43,9.65,.92,13.68Z" style="fill:#fff;"></path><path d="M128.59,94.58l-.02,.02c-3.52,4.02-9.63,4.41-13.66,.89l-8.1-7.09,12.76-14.59,8.1,7.09c4.02,3.52,4.43,9.65,.92,13.68Z" style="fill:#ebebeb;"></path><path d="M128.05,90.94c1.64-1.87,.49-5.95-2.07-8.2-1.22-1.07-5.23-4.6-5.23-4.6" style="fill: none; stroke: #fff; stroke-miterlimit: 10;"></path></g><g><path d="M79.13,88.95l.02-.02c3.51-4.03,9.63-4.43,13.66-.92l16.21,14.12c4.03,3.51,4.47,9.62,.96,13.65l-.02,.02c-3.51,4.03-9.64,4.45-13.67,.94l-16.21-14.12c-4.03-3.51-4.45-9.64-.94-13.67Z" style="fill:#fff;"></path><path d="M79.13,88.95l.02-.02c3.51-4.03,9.63-4.43,13.66-.92l8.11,7.07-12.73,14.62-8.11-7.07c-4.03-3.51-4.45-9.64-.94-13.67Z" style="fill:#ebebeb;"></path><path d="M79.69,92.58c-1.64,1.87-.47,5.95,2.09,8.19,1.23,1.07,5.24,4.59,5.24,4.59" style="fill: none; stroke: #fff; stroke-miterlimit: 10;"></path></g><g><path d="M91.26,137.08l-.02,.02c-3.52,4.02-9.63,4.41-13.66,.89l-16.18-14.15c-4.02-3.52-4.45-9.63-.93-13.65l.02-.02c3.52-4.02,9.65-4.43,13.68-.92l16.18,14.15c4.02,3.52,4.43,9.65,.92,13.68Z" style="fill:#fff;"></path><path d="M91.26,137.08l-.02,.02c-3.52,4.02-9.63,4.41-13.66,.89l-8.1-7.09,12.76-14.59,8.1,7.09c4.02,3.52,4.43,9.65,.92,13.68Z" style="fill:#ebebeb;"></path><path d="M90.72,133.44c1.64-1.87,.49-5.95-2.07-8.2-1.22-1.07-5.23-4.6-5.23-4.6" style="fill: none; stroke: #fff; stroke-miterlimit: 10;"></path></g><g><path d="M72.6,158.33l-.02,.02c-3.52,4.02-9.63,4.41-13.66,.89l-16.18-14.15c-4.02-3.52-4.45-9.63-.93-13.65l.02-.02c3.52-4.02,9.65-4.43,13.68-.91l16.18,14.15c4.02,3.52,4.43,9.65,.92,13.68Z" style="fill:#fff;"></path><path d="M72.6,158.33l-.02,.02c-3.52,4.02-9.63,4.41-13.66,.89l-8.1-7.09,12.76-14.59,8.1,7.09c4.02,3.52,4.43,9.65,.92,13.68Z" style="fill:#ebebeb;"></path><path d="M72.05,154.69c1.64-1.87,.49-5.95-2.07-8.2-1.22-1.07-5.23-4.6-5.23-4.6" style="fill: none; stroke: #fff; stroke-miterlimit: 10;"></path></g><g><path d="M23.17,152.67l.02-.02c3.52-4.02,9.63-4.41,13.66-.89l16.18,14.15c4.02,3.52,4.45,9.63,.93,13.65l-.02,.02c-3.52,4.02-9.65,4.43-13.68,.91l-16.18-14.15c-4.02-3.52-4.43-9.65-.92-13.68Z" style="fill:#fff;"></path><path d="M23.17,152.67l.02-.02c3.52-4.02,9.63-4.41,13.66-.89l8.1,7.09-12.76,14.59-8.1-7.09c-4.02-3.52-4.43-9.65-.92-13.68Z" style="fill:#ebebeb;"></path><path d="M23.71,156.3c-1.64,1.87-.49,5.95,2.07,8.2,1.22,1.07,5.23,4.6,5.23,4.6" style="fill: none; stroke: #fff; stroke-miterlimit: 10;"></path></g><g><path d="M164.02,125.7l-.02,.02c-3.52,4.02-9.63,4.41-13.66,.89l-16.18-14.15c-4.02-3.52-4.45-9.63-.93-13.65l.02-.02c3.52-4.02,9.65-4.43,13.68-.91l16.18,14.15c4.02,3.52,4.43,9.65,.92,13.68Z" style="fill:#fff;"></path><path d="M164.02,125.7l-.02,.02c-3.52,4.02-9.63,4.41-13.66,.89l-8.1-7.09,12.76-14.59,8.1,7.09c4.02,3.52,4.43,9.65,.92,13.68Z" style="fill:#ebebeb;"></path><path d="M163.48,122.06c1.64-1.87,.49-5.95-2.07-8.2-1.22-1.07-5.23-4.6-5.23-4.6" style="fill: none; stroke: #fff; stroke-miterlimit: 10;"></path></g><g><path d="M145.38,146.91l-.02,.02c-3.51,4.03-9.62,4.43-13.66,.92l-16.21-14.12c-4.03-3.51-4.47-9.62-.96-13.65l.02-.02c3.51-4.03,9.64-4.45,13.67-.94l16.21,14.12c4.03,3.51,4.45,9.64,.94,13.67Z" style="fill:#fff;"></path><path d="M145.38,146.91l-.02,.02c-3.51,4.03-9.62,4.43-13.66,.92l-8.11-7.07,12.73-14.62,8.11,7.07c4.03,3.51,4.45,9.64,.94,13.67Z" style="fill:#ebebeb;"></path><path d="M144.83,143.28c1.64-1.87,.47-5.95-2.09-8.19-1.23-1.07-5.24-4.59-5.24-4.59" style="fill: none; stroke: #fff; stroke-miterlimit: 10;"></path></g><g><path d="M95.93,141.28l.02-.02c3.52-4.02,9.63-4.41,13.66-.89l16.18,14.15c4.02,3.52,4.45,9.63,.93,13.65l-.02,.02c-3.52,4.02-9.65,4.43-13.68,.91l-16.18-14.15c-4.02-3.52-4.43-9.65-.92-13.68Z" style="fill:#fff;"></path><path d="M95.93,141.28l.02-.02c3.52-4.02,9.63-4.41,13.66-.89l8.1,7.09-12.76,14.59-8.1-7.09c-4.02-3.52-4.43-9.65-.92-13.68Z" style="fill:#ebebeb;"></path><path d="M96.47,144.92c-1.64,1.87-.49,5.95,2.07,8.2,1.22,1.07,5.23,4.6,5.23,4.6" style="fill: none; stroke: #fff; stroke-miterlimit: 10;"></path></g><g><path d="M77.26,162.53l.02-.02c3.52-4.02,9.63-4.41,13.66-.89l16.18,14.15c4.02,3.52,4.45,9.63,.93,13.65l-.02,.02c-3.52,4.02-9.65,4.43-13.68,.91l-16.18-14.15c-4.02-3.52-4.43-9.65-.92-13.68Z" style="fill:#fff;"></path><path d="M77.26,162.53l.02-.02c3.52-4.02,9.63-4.41,13.66-.89l8.1,7.09-12.76,14.59-8.1-7.09c-4.02-3.52-4.43-9.65-.92-13.68Z" style="fill:#ebebeb;"></path><path d="M77.8,166.17c-1.64,1.87-.49,5.95,2.07,8.2,1.22,1.07,5.23,4.6,5.23,4.6" style="fill: none; stroke: #fff; stroke-miterlimit: 10;"></path></g><g><path d="M89.36,210.7l-.02,.02c-3.52,4.02-9.63,4.41-13.66,.89l-16.18-14.15c-4.02-3.52-4.45-9.63-.93-13.65l.02-.02c3.52-4.02,9.65-4.43,13.68-.91l16.18,14.15c4.02,3.52,4.43,9.65,.92,13.68Z" style="fill:#fff;"></path><path d="M89.36,210.7l-.02,.02c-3.52,4.02-9.63,4.41-13.66,.89l-8.1-7.09,12.76-14.59,8.1,7.09c4.02,3.52,4.43,9.65,.92,13.68Z" style="fill:#ebebeb;"></path><path d="M88.82,207.06c1.64-1.87,.49-5.95-2.07-8.2-1.22-1.07-5.23-4.6-5.23-4.6" style="fill: none; stroke: #fff; stroke-miterlimit: 10;"></path></g></g></g><g><g><path d="M150.08,55.8c4.95,21.13,25.02,35.49,46.49,30.45,12.89-3.02,23.46-10.35,28.57-21.22,3.4-7.24,4.38-16.04,2.01-26.17-5.94-25.35-27.98-36.09-48.99-31.16-9.54,2.23-16.56,7.29-21.32,13.71-7.43,10.01-9.35,23.34-6.76,34.4Z" style="fill:#ebebeb; opacity: .3;"></path><path d="M167.44,80.3c-8.43-5.67-14.39-14.42-16.78-24.63-2.73-11.66-.18-24.63,6.66-33.84,5.06-6.82,12.33-11.49,21.03-13.53,10.43-2.45,20.96-.96,29.66,4.17,9.37,5.53,15.78,14.69,18.55,26.48,2.23,9.53,1.56,18.2-1.99,25.77-4.88,10.39-14.86,17.82-28.09,20.91-2.83,.66-5.69,.99-8.51,.99-7.24,0-14.32-2.15-20.52-6.33Zm11.37-70.05c-8.24,1.93-15.11,6.34-19.88,12.78-6.5,8.75-8.92,21.09-6.32,32.19h0c2.28,9.71,7.94,18.03,15.95,23.43,8.16,5.5,17.92,7.29,27.46,5.05,12.63-2.96,22.12-10,26.74-19.82,3.36-7.15,3.98-15.38,1.86-24.46-2.64-11.25-8.73-19.97-17.62-25.22-5.65-3.33-12.12-5.04-18.83-5.04-3.09,0-6.23,.36-9.37,1.1Z" style="fill:#ebebeb; opacity: .3;"></path><path d="M168.02,51.66c2.65,11.31,13.4,19,24.89,16.31,6.9-1.62,12.56-5.54,15.3-11.36,1.82-3.88,2.35-8.59,1.07-14.02-3.18-13.58-14.98-19.33-26.23-16.69-5.11,1.2-8.87,3.9-11.42,7.34-3.98,5.36-5.01,12.5-3.62,18.42Z" style="fill:#ebebeb; opacity: .8;"></path></g><g><path d="M283.77,284.71c3.52,15,17.77,25.2,33.01,21.62,9.15-2.14,16.66-7.35,20.29-15.07,2.42-5.14,3.11-11.39,1.42-18.59-4.22-18-19.87-25.63-34.78-22.13-6.77,1.59-11.76,5.18-15.14,9.73-5.28,7.11-6.64,16.57-4.8,24.43Z" style="fill:#ebebeb; opacity: .3;"></path><path d="M295.94,302.35c-6.04-4.07-10.32-10.34-12.03-17.66-1.96-8.36-.13-17.66,4.78-24.27,3.63-4.9,8.85-8.26,15.1-9.72,7.48-1.75,15.03-.69,21.28,2.99,6.72,3.97,11.32,10.53,13.31,18.99,1.6,6.83,1.12,13.05-1.44,18.49-3.51,7.46-10.66,12.79-20.15,15.01-2.04,.48-4.08,.71-6.11,.71-5.2,0-10.28-1.55-14.73-4.55Zm8.3-49.7c-5.87,1.37-10.56,4.39-13.95,8.96-4.57,6.15-6.27,14.82-4.44,22.62h0c1.6,6.83,5.58,12.67,11.2,16.46,5.73,3.86,12.57,5.12,19.27,3.55,8.88-2.08,15.55-7.02,18.79-13.91,2.36-5.02,2.79-10.8,1.3-17.18-1.85-7.91-6.13-14.04-12.37-17.72-3.97-2.34-8.51-3.54-13.22-3.54-2.17,0-4.38,.26-6.58,.77Z" style="fill:#ebebeb; opacity: .3;"></path><path d="M296.51,281.77c1.88,8.03,9.51,13.49,17.68,11.58,4.9-1.15,8.92-3.94,10.86-8.07,1.29-2.75,1.67-6.1,.76-9.95-2.26-9.64-10.64-13.72-18.63-11.85-3.63,.85-6.3,2.77-8.11,5.21-2.83,3.81-3.56,8.87-2.57,13.08Z" style="fill:#ebebeb; opacity: .8;"></path></g><g><path d="M.54,243.55c2.44,10.4,12.32,17.48,22.89,15,6.35-1.49,11.55-5.1,14.07-10.45,1.68-3.57,2.16-7.9,.99-12.89-2.93-12.49-13.78-17.78-24.12-15.35-4.7,1.1-8.16,3.59-10.5,6.75-3.66,4.93-4.61,11.49-3.33,16.94Z" style="fill:#ebebeb; opacity: .3;"></path><path d="M8.94,255.83c-4.21-2.83-7.18-7.2-8.37-12.29H.57c-1.36-5.82-.09-12.29,3.32-16.88,2.53-3.41,6.16-5.75,10.51-6.76,5.2-1.22,10.46-.48,14.8,2.08,4.68,2.76,7.88,7.33,9.26,13.21,1.11,4.75,.78,9.08-1,12.86-2.44,5.19-7.42,8.9-14.01,10.44-1.42,.33-2.84,.5-4.25,.5-3.62,0-7.15-1.08-10.25-3.16Zm5.81-34.46c-4.05,.95-7.3,3.03-9.64,6.19-3.16,4.25-4.33,10.24-3.07,15.64h0c1.11,4.72,3.86,8.76,7.74,11.38,3.96,2.67,8.69,3.54,13.32,2.45,6.14-1.44,10.75-4.85,12.99-9.62,1.63-3.47,1.93-7.46,.9-11.88-1.28-5.47-4.24-9.71-8.55-12.25-2.74-1.62-5.88-2.45-9.14-2.45-1.5,0-3.03,.18-4.55,.53Z" style="fill:#ebebeb; opacity: .3;"></path><path d="M9.38,241.51c1.31,5.57,6.6,9.36,12.26,8.03,3.4-.8,6.19-2.73,7.53-5.6,.9-1.91,1.16-4.23,.53-6.9-1.57-6.69-7.38-9.52-12.92-8.22-2.52,.59-4.37,1.92-5.62,3.61-1.96,2.64-2.47,6.15-1.78,9.07Z" style="fill:#ebebeb; opacity: .8;"></path></g><g><path d="M368.6,202.89c2.44,10.4,12.32,17.48,22.89,15,6.35-1.49,11.55-5.1,14.07-10.45,1.68-3.57,2.16-7.9,.99-12.89-2.93-12.49-13.78-17.77-24.12-15.35-4.7,1.1-8.16,3.59-10.5,6.75-3.66,4.93-4.61,11.49-3.33,16.94Z" style="fill:#ebebeb; opacity: .3;"></path><path d="M377,215.17c-4.21-2.83-7.18-7.2-8.37-12.29h0c-1.36-5.82-.09-12.28,3.32-16.88,2.53-3.41,6.16-5.75,10.51-6.76,5.2-1.22,10.46-.48,14.8,2.08,4.68,2.76,7.88,7.33,9.26,13.21,1.11,4.75,.78,9.08-1,12.86-2.44,5.19-7.42,8.9-14.01,10.44-1.42,.33-2.84,.5-4.25,.5-3.62,0-7.15-1.08-10.25-3.16Zm5.81-34.46c-4.05,.95-7.3,3.03-9.64,6.19-3.16,4.25-4.33,10.24-3.07,15.64h0c1.11,4.72,3.86,8.76,7.74,11.38,3.96,2.67,8.69,3.54,13.32,2.45,6.14-1.44,10.75-4.85,12.99-9.62,1.63-3.47,1.93-7.46,.9-11.88-1.28-5.47-4.24-9.71-8.55-12.25-2.74-1.62-5.88-2.45-9.14-2.45-1.5,0-3.03,.18-4.55,.53Z" style="fill:#ebebeb; opacity: .3;"></path><path d="M377.44,200.85c1.31,5.57,6.6,9.36,12.26,8.03,3.4-.8,6.19-2.73,7.53-5.6,.9-1.91,1.16-4.23,.53-6.9-1.57-6.69-7.38-9.52-12.92-8.22-2.52,.59-4.37,1.92-5.62,3.61-1.96,2.64-2.47,6.15-1.78,9.07Z" style="fill:#ebebeb; opacity: .8;"></path></g></g><g><path d="M121.89,3.31l2.72,3.87c2.47,3.52,1.62,8.37-1.9,10.84l-32.53,22.84L12.34,93.13c-1.74,1.17-4.09,.73-5.29-.98l-4.64-6.61c-1.2-1.7-.82-4.05,.85-5.29L78.52,24.25,111.05,1.41c3.52-2.47,8.37-1.62,10.84,1.9Z" style="fill:#ebebeb;"></path><path d="M121.89,3.31l2.72,3.87c2.47,3.52,1.62,8.37-1.9,10.84l-32.53,22.84c-9.52-1.92-11.66-16.61-11.66-16.61L111.05,1.41c3.52-2.47,8.37-1.62,10.84,1.9Z" style="fill:#c7c7c7;"></path><g><path d="M12.97,82.67c.55,.79,.36,1.88-.43,2.44-.79,.55-1.88,.36-2.44-.43-.55-.79-.36-1.88,.43-2.44s1.88-.36,2.44,.43Z" style="fill:#c7c7c7;"></path><path d="M19.64,77.98c.55,.79,.36,1.88-.43,2.44s-1.88,.36-2.44-.43c-.55-.79-.36-1.88,.43-2.44s1.88-.36,2.44,.43Z" style="fill:#c7c7c7;"></path></g><g><path d="M68.3,43.82c1.67,2.38-.97,7.1-5.88,10.55-4.92,3.45-10.25,4.32-11.92,1.95-1.67-2.38,.97-7.1,5.88-10.55,4.92-3.45,10.25-4.32,11.92-1.95Z" style="fill:#fff;"></path><g><path d="M54.81,47l5.92,8.44c-.55,.33-1.1,.61-1.64,.87l-5.66-8.06c.42-.42,.87-.84,1.37-1.24Z" style="fill:#c7c7c7;"></path><path d="M59.7,43.84l5.66,8.06c-.42,.42-.87,.84-1.37,1.24l-5.92-8.44c.55-.33,1.1-.61,1.64-.87Z" style="fill:#c7c7c7;"></path></g></g></g></g></g><g id="freepik--Table--inject-30"><path d="M8.48,427.06c125.01-.61,265.23-.62,390.24,0-125.01,.62-265.23,.61-390.24,0h0Z" style="fill:#263238;"></path></g><g id="freepik--in-vitro--inject-30"><g><g><g style="opacity: .3;"><path d="M201.9,96.51c-3.77,54.81,34.09,104.52,89.78,108.33,33.43,2.3,64.48-7.57,84.95-30.05,13.63-14.98,22.56-35.55,24.37-61.83C405.52,47.18,360.2,4.77,305.7,1.04c-24.75-1.71-45.5,5.3-61.8,17.27-25.44,18.68-40.03,49.49-42,78.2Z" style="fill:#c7c7c7;"></path><path d="M201.9,96.51c-3.1,39.84,18.17,81.27,54.67,98.77,23.96,11.75,52.43,12.06,77.81,4.96,45.85-13.46,67.46-53.31,66.41-99.31-.92-61.67-51.55-104.62-112.28-99.44-48.42,4.19-83.24,48.18-86.6,95.01h0Zm0,0C205.12,49.58,239.93,5.4,288.46,1.06c61.14-5.41,112.17,37.78,113.29,99.85,1.15,46.21-21.14,86.64-67.2,99.93-25.53,7.05-54.11,6.65-78.15-5.22-36.51-17.65-57.74-59.2-54.5-99.1h0Z" style="fill:#263238;"></path></g><path d="M224.44,169.75c-16.42-20.33-24.44-46.34-22.59-73.24,2.11-30.73,18.2-60.67,41.99-78.13C261.43,5.46,282.85-.53,305.78,1.06c27.48,1.88,52.25,13.5,69.75,32.71,18.84,20.68,27.67,48.05,25.53,79.14-1.73,25.12-9.94,45.92-24.42,61.83-19.87,21.83-50.01,32.54-84.89,30.13-7.47-.51-14.73-1.86-21.68-4-17.79-5.48-33.55-16.14-45.65-31.11ZM305.43,6.19c-21.71-1.5-41.95,4.15-58.55,16.34-22.6,16.59-37.89,45.08-39.9,74.34h0c-1.76,25.6,5.86,50.34,21.46,69.65,15.9,19.69,38.51,31.49,63.67,33.21,33.27,2.29,61.94-7.81,80.73-28.46,13.67-15.03,21.44-34.79,23.09-58.72,2.04-29.66-6.33-55.7-24.2-75.32-11.36-12.47-25.98-21.57-42.45-26.65-7.6-2.34-15.6-3.83-23.85-4.39Z" style="fill:#c7c7c7; opacity: .3;"></path></g><path d="M338.92,103.46c.33,16.18,10.29,27.82,6.96,42.04-3.16,13.48-16.46,28.78-43.53,30.75-27.07,1.98-68.22-13.14-74.87-60.6-6.65-47.46,31.72-76.12,60.77-79.82,29.05-3.7,54.49,19.26,57.59,35.78,3.1,16.52-7.08,24.13-6.92,31.85Z" style="fill:#2C1550;"></path><g><path d="M401.36,101.66c.07,3.69-.03,7.44-.29,11.25,0,.06-.01,.1,0,.16l-36.45,1.43-28.92-10.26,65.68-2.58Z" style="fill:#c7c7c7;"></path><path d="M341.02,105.05s15.92,2.35,18.1,3.48c2.18,1.12,5.87,4.98,5.87,4.98" style="fill:#a6a6a6;"></path></g><g><path d="M304.91,114.26c-3.39,.42-6.48-.61-6.9-2.24-.43-1.67,1.79-4.02,4.96-5.28,2.85-1.14,5.57-.28,6.26,2.39,.69,2.68-1.27,4.75-4.32,5.13Z" style="fill:#263238;"></path><path d="M307.85,108.18c1.34-.07,2.52-.84,3.82-1.86,3.59-3,6.5-1.91,9.35,1.32,1.91,2.01,4.78,5.32,7.32,2.43,1.54-1.68,2.34-4.5,4.63-5.6,2.43-1.09,4.83,.62,7.24,.67-2.35,.08-4.8-1.46-7.06-.33-2.21,1.28-2.62,3.83-4.23,5.77-2.84,3.56-6.53,.23-8.79-2.02-2.5-2.48-4.53-3.52-7.34-.83-1.18,1.02-2.75,2.27-4.72,2.49l-.21-2.05h0Z" style="fill:#263238;"></path></g><path d="M334.81,103.09c.22,10.52,4.16,17.2,1.99,26.44-2.05,8.76-10.14,21.91-27.74,23.2-17.59,1.28-41.9-14.21-46.23-45.06-4.32-30.85,17.62-47.02,36.5-49.43,18.88-2.41,35.42,12.52,37.44,23.26,2.02,10.74-2.07,16.57-1.97,21.59Z" style="fill:#030402; opacity: .1;"></path><path d="M224.36,85.94c-9.25-4.51-3.11-36.34,31.16-59.27,24.45-16.36,53.81-16.77,59.15-6.09,3.09,6.17-9.11,23.19-21.49,27.78-13.77,5.1-26.48,6.85-35.53,12.64-9.05,5.79-24.93,29.02-33.29,24.94Z" style="fill:#fff; opacity: .4;"></path><path d="M218.68,97.03c5.03-4.6,18.56,5.43,19.75,10.49s-4.75,20.14-12.47,19.55c-7.72-.59-16.23-21.85-7.28-30.04Z" style="fill:#fff; opacity: .4;"></path><path d="M233.61,90.58c.5-2.77,7.45-2.86,9.11-1.49,1.66,1.36,1.85,5.95-.83,7.69s-9.17-1.27-8.28-6.19Z" style="fill:#fff; opacity: .4;"></path><path d="M384.24,134.07c-4.61,.02-16.3,18.28-33,31.22-12.17,9.43-41.87,19.59-40.36,23.4,1.34,3.39,32.7-1.44,49.3-14.73,16.59-13.3,28.81-39.91,24.07-39.89Z" style="fill:#030402; opacity: .05;"></path></g></g><g id="freepik--Microscope--inject-30"><g><path d="M398.02,427.06h-14.21s-3.39-52.29-35.04-54.91c-16.74-1.38-32.18,10.54-44.2,23.94,11.9-13.51,33-30.94,53.11-30.94,30.3,0,40.34,61.91,40.34,61.91Z" style="fill:#263238;"></path><polygon points="304.25 265.12 326.04 220.7 333.41 230.68 314.72 265.12 304.25 265.12" style="fill:#263238;"></polygon><g><rect x="301.52" y="243.79" width="53.27" height="12.78" transform="translate(-46.24 423.69) rotate(-62.19)" style="fill:#455a64;"></rect><polygon points="321.38 276.72 328.16 274.88 348.62 236.98 346.24 229.6 321.38 276.72" style="fill:#37474f;"></polygon></g><g><g><rect x="255.07" y="268.46" width="9.2" height="33.73" rx="2.65" ry="2.65" transform="translate(138.02 -80.79) rotate(23.92)" style="fill:#37474f;"></rect><rect x="280.98" y="284.02" width="9.2" height="33.73" rx="2.65" ry="2.65" transform="translate(146.56 -89.96) rotate(23.93)" style="fill:#37474f;"></rect><rect x="262.99" y="278.07" width="12.78" height="43.45" rx="3.59" ry="3.59" transform="translate(144.71 -83.48) rotate(23.92)" style="fill:#37474f;"></rect></g><rect x="312.44" y="148.79" width="12.78" height="43.45" rx="3.59" ry="3.59" transform="translate(96.55 -114.65) rotate(23.93)" style="fill:#37474f;"></rect><rect x="331.56" y="157.27" width="12.78" height="43.45" rx="3.59" ry="3.59" transform="translate(101.62 -121.67) rotate(23.92)" style="fill:#37474f;"></rect><path d="M260.78,270.69l45.75-95.25s13.06,.45,35.68,16.13l-48.59,95.02s-16.2-3.34-32.83-15.9Z" style="fill:#37474f;"></path><path d="M302.7,294.56s-43.1-12.72-54.95-24.38l3.77-8.5c33.31,5.1,54.95,24.38,54.95,24.38l-3.77,8.5Z" style="fill:#455a64;"></path><path d="M343.84,194.29s-17.06-14.54-40.23-18.92l3.96-8.42c24.48-.42,40.23,18.92,40.23,18.92l-3.96,8.42Z" style="fill:#455a64;"></path><path d="M312.07,251.58s-18.85-12.48-35.1-16.51c-1-.25-1.33-1.55-.89-2.47l4.43-9.42c.44-.93,1.48-1.14,2.47-.89,21.88,5.55,35.1,16.51,35.1,16.51,.93,.44,1.33,1.54,.89,2.47l-4.43,9.42c-.44,.93-1.54,1.33-2.47,.89Z" style="fill:#455a64;"></path></g><g><path d="M342.46,239.97l3.41-1.52s47.57,21.1,45.11,77.82c-1.63,37.58-29.05,63.55-29.05,63.55,0,0,33.34-43.01,20.88-82.83-12.46-39.82-40.35-57.02-40.35-57.02Z" style="fill:#455a64;"></path><path d="M387.13,320.18c-2.74,34.65-25.2,59.64-25.2,59.64h-34.11c-15.64-20.58-40.53-32.6-40.53-32.6l27.26,4.77,2.43-1.25,4.79-2.45s6.91,10.57,17.3,10.33c1.93-.04,3.99-.44,6.16-1.38,12.15-5.24,18.27-37.48,12.6-56.73-5.67-19.25-30.55-31.14-30.55-31.14l15.18-29.4c27.14,12.18,47.4,45.56,44.67,80.21Z" style="fill:#37474f;"></path><path d="M339.09,358.64s-8.93,3.03-22.11-7.89l4.79-2.45s6.91,10.57,17.3,10.33h0Z" style="fill:#455a64;"></path></g><path d="M383.81,427.06h-101.74c2.54-3.97,6.94-11.12,12.77-18.98,0,0,.13-.18,.37-.51,.16-.21,.31-.41,.46-.62,.09-.12,.19-.26,.29-.39,.29-.38,.59-.76,.88-1.15,.07-.11,.16-.22,.24-.32,.31-.4,.63-.81,.95-1.22,.51-.66,1.08-1.36,1.71-2.13,.43-.54,.87-1.07,1.32-1.61,.7-.83,1.44-1.72,2.24-2.63,.4-.47,.81-.94,1.25-1.42,12.02-13.4,27.46-25.32,44.2-23.94,31.64,2.62,35.04,54.91,35.04,54.91Z" style="fill:#455a64;"></path><g><rect x="210.53" y="335.65" width="100.35" height="12.71" transform="translate(29.37 -20.51) rotate(4.77)" style="fill:#263238;"></rect><rect x="310.67" y="340.76" width="22.25" height="12.71" transform="translate(30.01 -25.58) rotate(4.78)" style="fill:#37474f;"></rect></g><g><path d="M302.14,418.69c0,1.9-1.54,3.44-3.44,3.44s-3.44-1.54-3.44-3.44,1.54-3.44,3.44-3.44,3.44,1.54,3.44,3.44Z" style="fill:#263238;"></path><path d="M373.65,418.69c0,1.9-1.54,3.44-3.44,3.44s-3.44-1.54-3.44-3.44,1.54-3.44,3.44-3.44,3.44,1.54,3.44,3.44Z" style="fill:#263238;"></path><path d="M345.29,383.26c0,1.9-1.54,3.44-3.44,3.44s-3.44-1.54-3.44-3.44,1.54-3.44,3.44-3.44,3.44,1.54,3.44,3.44Z" style="fill:#263238;"></path><path d="M318.83,198.5c0,1.9-1.54,3.44-3.44,3.44s-3.44-1.54-3.44-3.44,1.54-3.44,3.44-3.44,3.44,1.54,3.44,3.44Z" style="fill:#263238;"></path><path d="M289.03,261.68c0,1.9-1.54,3.44-3.44,3.44s-3.44-1.54-3.44-3.44,1.54-3.44,3.44-3.44,3.44,1.54,3.44,3.44Z" style="fill:#263238;"></path><path d="M352.06,262.89c0,1.9-1.54,3.44-3.44,3.44s-3.44-1.54-3.44-3.44,1.54-3.44,3.44-3.44,3.44,1.54,3.44,3.44Z" style="fill:#263238;"></path><path d="M326.31,362.39c0,1.9-1.54,3.44-3.44,3.44s-3.44-1.54-3.44-3.44,1.54-3.44,3.44-3.44,3.44,1.54,3.44,3.44Z" style="fill:#263238;"></path></g></g></g><g id="freepik--Tubes--inject-30"><g><g><g><g style="opacity: .5;"><path d="M249.27,328.38l.31,79.75c.02,4.5,3.69,8.14,8.19,8.12,4.5-.02,8.14-3.69,8.12-8.19l-.31-79.75-16.31,.07Z" style="fill:#ebebeb;"></path><path d="M249.27,328.38c.17,18.61,.51,57.03,.6,75.22,.07,1.62-.09,4.15,.14,5.72,.52,3.73,4.01,6.66,7.76,6.58,5.08-.04,8.33-4.64,7.75-9.49,0-1.8,0-6.8-.01-8.68-.01-22.43-.12-47.12-.05-69.42,.82,.29-16.4,0-16.19,.07h0Zm0,0l16.31-.19h.12c.25,22.31,.32,47.09,.49,69.54,0,1.86,.05,6.87,.06,8.68,.64,5.25-2.97,10.19-8.47,10.2-5.49,0-9.1-4.88-8.52-10.13,0-1.8-.01-6.83-.01-8.7-.04-14.74,0-54.17,.02-69.39h0Z" style="fill:#263238;"></path></g><path d="M250.3,348.37l.22,59.71c.02,3.98,3.26,7.2,7.24,7.18,3.98-.02,7.2-3.26,7.18-7.24l-.22-59.71-14.42,.07Z" style="fill:#2C1550;"></path><rect x="246.71" y="322.25" width="21.43" height="10.75" transform="translate(516.32 654.08) rotate(179.74)" style="fill:#455a64;"></rect></g><g><g style="opacity: .5;"><path d="M198.73,328.38l.31,79.75c.02,4.5,3.69,8.14,8.19,8.12,4.5-.02,8.14-3.69,8.12-8.19l-.31-79.75-16.31,.07Z" style="fill:#ebebeb;"></path><path d="M198.73,328.38c.17,18.61,.51,57.03,.6,75.22,.07,1.62-.09,4.15,.14,5.72,.52,3.73,4.01,6.66,7.76,6.58,5.08-.04,8.33-4.64,7.75-9.49,0-1.8,0-6.8-.01-8.68-.01-22.43-.12-47.12-.05-69.42,.82,.29-16.4,0-16.19,.07h0Zm0,0l16.31-.19h.12c.25,22.31,.32,47.09,.49,69.54,0,1.86,.05,6.87,.06,8.68,.64,5.25-2.97,10.19-8.47,10.2-5.49,0-9.1-4.88-8.52-10.13,0-1.8-.01-6.83-.01-8.7-.04-14.74,0-54.17,.02-69.39h0Z" style="fill:#263238;"></path></g><path d="M199.77,348.37l.22,59.71c.02,3.98,3.26,7.2,7.24,7.18,3.98-.02,7.2-3.26,7.18-7.24l-.22-59.71-14.42,.07Z" style="fill:#2C1550;"></path><polygon points="202.42 407.17 201.42 407.17 201.42 327.62 205.24 327.62 202.42 407.17" style="fill:#fff; opacity: .5;"></polygon><rect x="196.17" y="322.25" width="21.43" height="10.75" transform="translate(415.24 654.3) rotate(179.74)" style="fill:#455a64;"></rect></g><g><g style="opacity: .5;"><path d="M224.13,328.38l.31,79.75c.02,4.5,3.69,8.14,8.19,8.12,4.5-.02,8.14-3.69,8.12-8.19l-.31-79.75-16.31,.07Z" style="fill:#ebebeb;"></path><path d="M224.13,328.38c.17,18.61,.51,57.03,.6,75.22,.07,1.62-.09,4.15,.14,5.72,.52,3.73,4.01,6.66,7.76,6.58,5.08-.04,8.33-4.64,7.75-9.49,0-1.8,0-6.8-.01-8.68-.01-22.43-.12-47.12-.05-69.42,.82,.29-16.4,0-16.19,.07h0Zm0,0l16.31-.19h.12c.25,22.31,.32,47.09,.49,69.54,0,1.86,.05,6.87,.06,8.68,.64,5.25-2.97,10.19-8.47,10.2-5.49,0-9.1-4.88-8.52-10.13,0-1.8-.01-6.83-.01-8.7-.04-14.74,0-54.17,.02-69.39h0Z" style="fill:#263238;"></path></g><path d="M225.17,348.37l.22,59.71c.02,3.98,3.26,7.2,7.24,7.18,3.98-.02,7.2-3.26,7.18-7.24l-.22-59.71-14.42,.07Z" style="fill:#2C1550;"></path><polygon points="227.82 407.17 226.82 407.17 226.82 327.62 230.65 327.62 227.82 407.17" style="fill:#fff; opacity: .5;"></polygon><rect x="221.57" y="322.25" width="21.43" height="10.75" transform="translate(466.05 654.19) rotate(179.74)" style="fill:#455a64;"></rect></g></g><g><g><path d="M189.88,364.7l.02,7.73h90.21v-7.73h-14.65v2.59c0,1.28-3.6,2.31-8.04,2.31s-8.03-1.03-8.03-2.31v-2.59h-9.07v2.59c0,1.28-3.59,2.31-8.03,2.31s-8.03-1.03-8.03-2.31v-2.59h-9.07v2.59c0,1.28-3.59,2.31-8.03,2.31s-8.03-1.03-8.03-2.31v-2.59h-9.24Z" style="fill:#2C1550;"></path><path d="M189.88,364.7l.02,7.73h90.21v-7.73h-14.65v2.59c0,1.28-3.6,2.31-8.04,2.31s-8.03-1.03-8.03-2.31v-2.59h-9.07v2.59c0,1.28-3.59,2.31-8.03,2.31s-8.03-1.03-8.03-2.31v-2.59h-9.07v2.59c0,1.28-3.59,2.31-8.03,2.31s-8.03-1.03-8.03-2.31v-2.59h-9.24Z" style="fill:#030402; opacity: .2;"></path></g><g><rect x="189.88" y="372.43" width="90.23" height="3.11" transform="translate(469.99 747.98) rotate(180)" style="fill:#2C1550;"></rect><rect x="189.88" y="372.43" width="90.23" height="3.11" transform="translate(469.99 747.98) rotate(180)" style="fill:#030402; opacity: .4;"></rect></g></g><g><g><rect x="280.11" y="333.86" width="4.23" height="93.21" transform="translate(564.45 760.92) rotate(180)" style="fill:#2C1550;"></rect><rect x="189.88" y="421.28" width="90.23" height="5.79" transform="translate(469.99 848.34) rotate(180)" style="fill:#2C1550;"></rect><rect x="185.65" y="333.86" width="4.23" height="93.21" transform="translate(375.53 760.92) rotate(180)" style="fill:#2C1550;"></rect></g><g style="opacity: .4;"><rect x="280.11" y="333.86" width="4.23" height="93.21" transform="translate(564.45 760.92) rotate(180)" style="fill:#030402;"></rect><rect x="189.88" y="421.28" width="90.23" height="5.79" transform="translate(469.99 848.34) rotate(180)" style="fill:#030402;"></rect><rect x="185.65" y="333.86" width="4.23" height="93.21" transform="translate(375.53 760.92) rotate(180)" style="fill:#030402;"></rect></g></g></g></g><g id="freepik--Character--inject-30"><g><g><path d="M75.45,143.1c-5.58,21.61-15.91,46.61-11.01,69.22,3.86,17.71,16.82,31.82,31.13,42.14,31.49,22.67,79.69,34.9,111.27,5.55,12.61-11.73,20.31-40.06,6.4-53.95-7.15-7.11-16.72-10.43-25.54-14.93-11.64-5.9-19.08-14.7-22.37-27.38-6.44-24.72-.77-40.63,2.19-65.28,.54-4.57,.41-9.22-3.22-13.94-2.93-4.66-7.47-8.38-12.68-10.99-4.29-2.87-8.99-5-14.19-5.52-10.96-1.14-23.32,6.58-32.91,11-9.7,4.48-14.93,10.18-17.8,20.57-3.97,14.45-7.51,29.01-11.27,43.52Z" style="fill:#263238;"></path><path d="M70.59,152.82c6.39-19.48,13.15-38.81,19.79-58.19,.04-.12,.23-.08,.19,.04-5,16.11-9.77,32.27-14.99,48.32-5.11,15.73-11.44,31.55-15.15,47.68-8.33,36.19,25.92,58.85,57.19,63.57,1.42,.21,.92,2.46-.51,2.19-27.32-5.01-57.8-21.12-59.79-52.38-1.09-17.1,8.05-35.31,13.27-51.23Z" style="fill:#263238;"></path><path d="M166.18,96.2c.09-.39,.66-.25,.6,.14-3.29,20.17-9.03,43.39-1.31,63.18,3.78,9.69,10.5,18.18,19.13,24,6.86,4.63,14.76,6.57,22.28,9.77,29.41,12.48,20.99,53.97-4.7,65.44-.54,.24-.98-.68-.44-.95,18.32-9.2,28.28-30.84,19-50.22-7.45-15.55-28.06-15.45-40.55-25.63-25.87-21.08-20.72-56.85-14-85.74Z" style="fill:#263238;"></path></g><g><g><path d="M113.67,426.97H32.7s14.3-71.93,14.29-71.94c-20.65-21.74-14.29-62.05-14.29-62.05l107.95-.07c4.5,38.17-20.41,122.6-26.98,134.06Z" style="fill:#263238;"></path><path d="M174.8,292.91s11.39,38.19-18.17,71.1c-.73,.82,9.22,58.7,9.04,62.96H75.66c-4.39-14.45-16.72-43.93-16.72-43.93,0,0-23.24-13.13-29.27-40.86-5.32-24.49,3.03-49.21,3.03-49.21l142.1-.07Z" style="fill:#37474f;"></path></g><g style="opacity: .2;"><path d="M86.48,343.12c13.99,13.51,33.87,18.5,52.78,19.87,1.01,.11,3.1,.24,4.12,.26l4.13,.18c-21.62,.76-45.8-3.72-61.02-20.31h0Z" style="fill:#030402;"></path></g></g><g><path d="M166.2,352.33c10.2-11.25,13.64-35.26,12.3-47.01-3.35-29.27-21.97-44.22-21.97-44.22,0,0,11.67-13.93,6.12-29.32-2.8-7.79-29.01-54.04-40.96-64.43-11.21-9.75-29.75-2.34-36.48,4.26-20.16,19.77-38.08,68.47-50.44,114.21-.72,2.68-4.7,17.54-4.7,17.54,52.85,32.63,136.12,48.98,136.12,48.98Z" style="fill:#2C1550;"></path><g style="opacity: .1;"><path d="M127.31,173.45c-4.93-.13-9.85-.31-14.75-.52-8.95-.49-17.93-1.05-26.91-1.74,.11-.11,.22-.21,.34-.31,8.85,.73,17.72,1.29,26.59,1.64,4.73,.13,9.48,.24,14.23,.3,.17,.21,.34,.41,.5,.63Z" style="fill:#030402;"></path><path d="M140.08,191.66c-9.19-.02-18.39-.3-27.52-.7-13.33-.73-26.71-1.62-40.06-2.83,.09-.14,.18-.28,.26-.41,13.25,1.32,26.53,2.31,39.82,2.83,8.98,.24,18,.42,27.03,.38,.16,.24,.32,.49,.47,.73Z" style="fill:#030402;"></path><path d="M150.97,209.57c-12.83,.32-25.68-.03-38.41-.58-16.42-.89-32.92-2.04-49.34-3.71l.24-.51c16.33,1.81,32.71,3.16,49.12,3.81,12.6,.34,25.28,.56,37.94,.23,.15,.26,.3,.51,.45,.76Z" style="fill:#030402;"></path><path d="M160.6,227.24c-16.01,.83-32.12,.47-48.04-.22-18.95-1.04-38.02-2.39-56.95-4.52,.08-.19,.15-.37,.24-.56,18.86,2.22,37.77,3.92,56.73,4.67,15.82,.43,31.77,.66,47.64-.13,.14,.26,.26,.52,.38,.76Z" style="fill:#030402;"></path><path d="M163.85,244.31c-.03,.26-.07,.52-.12,.78-17.04,1.06-34.21,.7-51.17-.04-21.15-1.16-42.43-2.71-63.51-5.29l.21-.6c21.04,2.62,42.15,4.65,63.32,5.48,17.03,.46,34.21,.69,51.27-.33Z" style="fill:#030402;"></path><path d="M159,263.38c-15.48,.73-31.05,.37-46.44-.3-23.1-1.26-46.36-3-69.34-6.03,.06-.2,.13-.39,.19-.59,22.97,2.97,46.04,5.3,69.17,6.21,15.16,.42,30.45,.65,45.67-.03,.23,.22,.48,.47,.75,.74Z" style="fill:#030402;"></path><path d="M171.19,280.59c-19.47,1.72-39.2,1.36-58.63,.52-24.86-1.36-49.91-3.26-74.59-6.74,.05-.19,.11-.38,.16-.58,24.72,3.31,49.54,5.94,74.45,6.91,19.35,.53,38.9,.76,58.25-.81,.12,.23,.24,.46,.36,.7Z" style="fill:#030402;"></path><path d="M177.3,298.02c-21.45,2.39-43.27,2.05-64.74,1.12-26.46-1.44-53.14-3.51-79.37-7.44,.05-.18,.1-.36,.15-.53,26.3,3.61,52.72,6.52,79.24,7.56,21.46,.59,43.17,.81,64.57-1.39,.05,.23,.1,.45,.15,.68Z" style="fill:#030402;"></path><path d="M178.63,315.22c0,.23-.02,.45-.04,.68-21.86,2.55-44.13,2.22-66.03,1.27-22.83-1.24-45.83-2.95-68.55-5.92-.53-.28-1.05-.55-1.56-.83,23.29,3.04,46.68,5.42,70.13,6.34,21.95,.61,44.17,.82,66.05-1.54Z" style="fill:#030402;"></path><path d="M175.53,333.56c-.06,.25-.13,.49-.2,.73-20.81,2.16-41.96,1.81-62.77,.91-4.11-.22-8.22-.46-12.34-.72-.38-.12-.76-.25-1.15-.38,4.5,.29,9,.52,13.51,.69,20.92,.58,42.07,.8,62.95-1.23Z" style="fill:#030402;"></path></g><g><path d="M147.06,255.58c-6.3,.08-12.6,1.48-18.64,3.29-6.08,1.83-12.86,5.38-16.24,6.77-.08,.03-.05,.17,.04,.14,6.13-1.62,6.97-1.98,12.95-4.13,5.97-2.15,5.31-2,11.41-3.68,3.44-.95,6.96-1.52,10.48-2,.23-.03,.23-.39,0-.39Z" style="fill:#263238;"></path><path d="M153.06,260.03c-6.49-1.1-13.21-.76-19.65,.51-.08,.02-.07,.15,.01,.15,3.26-.19,6.51-.37,9.78-.44,3.28-.07,6.57-.02,9.85-.03,.12,0,.12-.17,0-.19Z" style="fill:#263238;"></path></g></g><g><g><path d="M101.71,166.7c-.07,2.63,6.72,25.94,20.57,26.92,5.82,.41,7.42-22.1,7.42-22.1l10.86-21.09-23.44-25.18s-15.36,40.33-15.4,41.44Z" style="fill:#f7a9a0;"></path><path d="M140.56,150.43l-10.53,20.47c-5.68-4.18-16.05-13.92-18.66-30.47,3.11-8.21,5.76-15.17,5.76-15.17l23.44,25.17Z" style="fill:#263238;"></path></g><g><path d="M175.8,123.67c-3.21,38.72-26.76,41.17-35.11,40.47-7.58-.64-33.3-3.77-34.11-42.61-.81-38.84,18.21-49.59,35.62-49.05,17.41,.54,36.81,12.48,33.6,51.19Z" style="fill:#f7a9a0;"></path><g><path d="M167.4,117.05c-.89-.22-1.67-.58-2.52-.89-.96-.35-1.77-.53-2.4-1.4-.34-.46-.2-1.3,.22-1.67,.98-.87,2.27-.73,3.45-.35,1.28,.41,2.16,1.05,2.89,2.17,.71,1.09-.47,2.43-1.64,2.14Z" style="fill:#263238;"></path><path d="M141.65,115.97c.92,.01,1.76-.13,2.67-.2,1.02-.09,1.85-.06,2.68-.73,.45-.36,.53-1.2,.22-1.67-.72-1.09-2-1.29-3.24-1.23-1.34,.06-2.36,.45-3.36,1.35-.97,.87-.18,2.47,1.02,2.49Z" style="fill:#263238;"></path><path d="M140.46,145.53c.4,.79,.73,1.79,1.61,2.18,.85,.37,2,.32,2.9,.27,.09,0,.14,.11,.07,.16-.97,.74-2.54,.88-3.63,.29-1.07-.58-1.3-1.75-1.22-2.87,.01-.16,.22-.15,.28-.03Z" style="fill:#263238;"></path><path d="M154.35,137.57s-.51,3.95-1,5.74c-.05,.17-.5,.13-1.12,0-.03,0-.05,0-.07-.02-3.3-.37-6.19-2.34-7.41-5.45-.08-.21,.2-.33,.33-.18,1.89,2.38,4.38,3.54,7.17,4.36,.26-.46,.65-6.79,.94-6.73,1,.18,2.75,1.38,3.82,2.04,1.31-8.19,1.29-16.52,2.72-24.65,.06-.29,.49-.26,.5,.01,.63,8.73-.67,18.18-1.8,26.67-.13,1.06-3.46-1.3-4.09-1.8Z" style="fill:#263238;"></path><g><path d="M146.41,124.1c-.01-.1-.21,.1-.21,.21-.14,2.54-.73,5.42-3.09,6.06-.07,.02-.08,.15,0,.14,2.83-.15,3.57-3.98,3.3-6.4Z" style="fill:#263238;"></path><path d="M141.49,122.56c-.09,.47-.11,.95-.1,1.42-.19,.34-.42,.65-.68,.9-.57,.54-1.28,.81-2.01,.57-1.46-.49-1.76-2.18-1.53-3.72,.01-.11,.09-.16,.14-.08,.45,.93,1,1.89,1.9,1.94,.78,.05,1.51-.66,2.21-1.01,.02,0,.03-.02,.05,0l.02-.02Z" style="fill:#263238;"></path><path d="M146.24,126.85c-.16,.62-.49,1.25-1.03,1.78-.54,.53-1.37,.76-2.12,.7-.77-.06-1.54-.6-1.89-1.24-.35-.64-.52-1.3-.55-1.95-.02-.41,0-.82,.04-1.22,.09-.86,.33-1.68,.79-2.39-.1,.62-.13,1.24-.09,1.83,.03,.57,.1,1.11,.2,1.65,.23,1.11,.77,2.06,1.64,2.1,.9,.11,1.64-.55,2.11-1.6,.46-1.02,.75-2.19,1.02-3.38,.23,1.21,.23,2.47-.12,3.71Z" style="fill:#263238;"></path></g><g><path d="M161.08,126.26c.03-.09,.18,.15,.16,.25-.44,2.5-.52,5.44,1.64,6.6,.07,.04,.04,.16-.04,.14-2.72-.79-2.57-4.69-1.76-6.99Z" style="fill:#263238;"></path><path d="M166.22,125.88c-.02,.48-.11,.95-.22,1.41,.11,.38,.27,.73,.46,1.03,.43,.66,1.06,1.08,1.83,1.01,1.53-.15,2.21-1.72,2.34-3.27,.01-.11-.05-.18-.12-.11-.65,.8-1.4,1.61-2.3,1.45-.77-.13-1.32-.98-1.92-1.48-.02,0-.03-.02-.05-.01v-.02Z" style="fill:#263238;"></path><path d="M160.61,128.97c.02,.64,.19,1.33,.59,1.97,.4,.64,1.16,1.05,1.9,1.17,.77,.12,1.63-.23,2.12-.78,.49-.54,.8-1.15,.98-1.77,.12-.4,.18-.8,.24-1.2,.1-.85,.06-1.71-.23-2.51-.04,.63-.16,1.23-.33,1.81-.16,.55-.35,1.06-.57,1.56-.48,1.02-1.22,1.84-2.07,1.67-.9-.1-1.47-.91-1.69-2.03-.22-1.1-.24-2.3-.23-3.52-.5,1.12-.78,2.35-.72,3.64Z" style="fill:#263238;"></path></g></g><g><path d="M109.58,120.98c7.96,1.38,11.69-16.73,11.69-16.73,0,0,4.98-.92,12.23-9.01,0,0-5.18,7.21-11.04,9.48-.99,.38,31.01,4.1,37.45-16.31,0,0-1.28,17.69,16.53,27.38,.56,.31,1.66-19.11-1.53-24.26-3.19-5.15-6.56-8.17-6.56-8.17,0,0-10.03-12.04-27.23-12.71-17.2-.66-31.42,14.89-34.03,21.88-5.13,13.73-1.29,27.79,2.48,28.45Z" style="fill:#263238;"></path><path d="M127.75,105.98c14.99,2.11,28.58-5.19,32.64-20.15,.1-.37,.68-.26,.66,.12-.84,15.78-19.6,23.99-33.48,20.27-.33-.09-.17-.29,.19-.24Z" style="fill:#263238;"></path><path d="M159.29,87.49c.01-.09,.14-.09,.16,0,1.79,8.67,2.08,23.28,13.16,25.54,.29,.06,.24,.49-.06,.46-10.83-1.22-14.48-17.05-13.25-26Z" style="fill:#263238;"></path></g><g><path d="M113.11,122.41s-6.31-13.38-12.25-11.33c-5.93,2.05-2.61,20.45,3.35,23.91,5.96,3.46,9.27-2,9.27-2l-.38-10.59Z" style="fill:#f7a9a0;"></path><path d="M101.94,116.33c-.1-.03-.15,.11-.06,.16,4.16,2.57,5.8,7.11,6.71,11.69-1.05-1.88-2.7-3.09-5.18-1.89-.13,.06-.05,.26,.08,.26,1.9-.08,3.16,.46,4.15,2.14,.7,1.19,1.07,2.6,1.49,3.9,.14,.44,.9,.34,.82-.14,0-.04-.01-.07-.02-.11,1.09-5.67-1.98-14.4-7.99-16.01Z" style="fill:#263238;"></path></g></g></g><g><g><path d="M91.75,169.75c11.84,3.66,7.53,43.38,5.99,55.08-1.54,11.7-5.07,17.08-19.14,18.71-14.07,1.63-15.82-26.07-11.64-42.2,4.94-19.03,18.23-33.62,24.79-31.59Z" style="fill:#f7a9a0;"></path><path d="M93.97,196.41c-4.64,19.19-28.47,87.4-34.4,93.32-7.06,7.05-37.84,28.73-48.58-.13-7.44-19.99,43.1-90.07,66.99-112.66,11.67-11.04,23.77-12.66,15.99,19.48Z" style="fill:#f7a9a0;"></path><path d="M91.17,217.28c-1.81,3.45-3.67,6.07-5.63,9.43,.46-1.23,2.81-10.11,4.59-15.8,.06-.18-.2-.24-.27-.08-2.03,4.67-10.01,27.26-11.26,32.7-.03,.15,.18,.26,.26,.11,2.16-4.5,4.46-10.74,5.37-13.12,2.85-4.09,5.09-8.65,7.06-13.2,.03-.06-.08-.11-.11-.05Z" style="fill:#263238;"></path></g><g><path d="M99.27,301.82c4.53,5.71-6.86,56.59-16.56,51.99-45.58-21.63-66.97-53.75-70.52-63.08-4.65-12.22,5.58-24.96,13.92-26.85,12.1-2.75,68.66,32.29,73.15,37.94Z" style="fill:#f7a9a0;"></path><path d="M50,272.9c20.39,6.23,43.99,24.64,44.03,24.66,.36,.18,.24,.72,.04,.62-3.75-1.84-29.81-18.73-44.17-24.72-.13-.06-.03-.6,.1-.56Z" style="fill:#263238;"></path><g><g><path d="M73.72,348.97c19.52,11.64,42.11,21.41,65.75,19.31,4.64-.41,7.1-2.97,7.1-2.97,10.61-.75,13.44-5.99,13.44-5.99,9.67-3.73,11.83-9.48,11.83-9.48,0,0,8.44-1.65,7.71-7.64-.7-5.81-15.02-7.88-25.75-12.1-24.6-9.67-53.38-28.87-60.2-32.37l-19.88,51.23Z" style="fill:#f7a9a0;"></path><path d="M124.38,339.51c7.3,2.7,14.39,5.55,22.02,7.24,8.37,1.86,16.73,2.25,25.23,2.86,.27,.02,.27,.39,0,.41-15.57,1.33-33.63-2.84-47.38-10.19-.33-.18-.24-.47,.13-.33Z" style="fill:#263238;"></path><path d="M116.38,353.51c7.25,2.23,20.01,6.08,43.62,5.55,.08,0,.1,.13,.02,.14-15.28,2.38-29.52,.38-43.74-5.35-.44-.18-.38-.49,.11-.34Z" style="fill:#263238;"></path><path d="M112.23,361.12c12.47,3.33,20.75,3.85,34.28,4.14,.08,0,.09,.14,0,.14-15.41,1.29-21.15,.02-34.46-3.87-.46-.13-.31-.54,.17-.41Z" style="fill:#263238;"></path><path d="M128.38,318c-2.71-2.53-1.4-3.97,5.16-3.4,6.64,.55,32.04,8.35,34.01-.77,1.99-9.15-34.15-19.59-45.14-19.68-10.99-.12-28.81,3.6-28.81,3.6,6.62,3.45,21.88,13.34,34.78,20.26Z" style="fill:#f7a9a0;"></path></g><path d="M174.57,348.95c-1.33,.66-2.87,.55-2.93,.67-3.88,7.28-11.55,9.42-11.58,9.44-.84,.79-5.46,5.93-13.39,6.1-.13,0-.15,.17-.02,.2,8.82,1.8,13.15-4.85,13.57-5.8,8.18-.99,10.66-7.07,11.74-9.54,.06,.01,1.93-.24,2.61-.93,.07-.07,.03-.14,0-.13Z" style="fill:#263238;"></path></g></g></g></g></g></svg>
